<svg width="17" height="17" viewBox="0 0 17 17" fill="none" xmlns="http://www.w3.org/2000/svg">
<path d="M15.0385 6.53846H10.4615V1.96154C10.4615 0.889231 9.57231 0 8.5 0C7.42769 0 6.53846 0.889231 6.53846 1.96154V6.53846H1.96154C0.889231 6.53846 0 7.42769 0 8.5C0 9.57231 0.889231 10.4615 1.96154 10.4615H6.53846V15.0385C6.53846 16.1108 7.42769 17 8.5 17C9.57231 17 10.4615 16.1108 10.4615 15.0385V10.4615H15.0385C16.1108 10.4615 17 9.57231 17 8.5C17 7.42769 16.1108 6.53846 15.0385 6.53846Z" fill="white"/>
</svg>
