<svg width="118" height="56" viewBox="0 0 118 56" fill="none" xmlns="http://www.w3.org/2000/svg">
<path d="M86.0954 10.5572L105.95 10.4964C105.956 10.4964 105.962 10.4987 105.966 10.5029C105.97 10.5071 105.973 10.5128 105.973 10.5187L105.95 17.6927C105.95 17.709 105.953 17.7252 105.96 17.7401C105.966 17.755 105.976 17.7683 105.988 17.7792L106.762 18.4736C106.78 18.4899 106.789 18.4857 106.789 18.4608L106.806 9.71829C106.807 9.68631 106.791 9.67032 106.758 9.67032L96.0599 9.6614C96.0456 9.6614 96.0314 9.65854 96.0182 9.65298C96.005 9.64743 95.993 9.63929 95.9829 9.62905L89.4799 3.12546C89.4727 3.11828 89.4631 3.11397 89.4529 3.11336C89.4428 3.11274 89.4327 3.11586 89.4247 3.12212C87.8942 4.33805 86.3992 5.59935 84.9397 6.90602C82.6829 8.92626 80.5171 11.0971 78.6536 13.4899C77.933 14.4151 77.2923 15.3923 76.7315 16.4216C76.1994 17.3977 75.8397 18.3994 75.6478 19.4982C75.547 20.0757 75.4836 20.4832 75.4576 20.7208C75.032 24.5929 76.5837 28.08 79.203 30.8533C79.6411 31.317 80.1228 31.7165 80.6482 32.0519C82.0166 32.9258 83.5068 33.5596 85.1187 33.9534L85.1371 33.9578C85.3667 34.0142 85.8926 34.1433 86.0853 34.0521C86.1404 34.026 86.145 33.9928 86.0993 33.9522C83.5079 31.657 81.8798 28.7181 81.5289 25.2522C81.2908 22.8967 81.6221 20.5039 82.3215 18.2466C83.1704 15.5068 84.4083 12.9543 86.0351 10.589C86.0418 10.5792 86.0508 10.5712 86.0613 10.5656C86.0718 10.5601 86.0835 10.5572 86.0954 10.5572Z" fill="#006738"/>
<path d="M73.0319 30.0914L72.9722 10.2621C72.9722 10.2428 72.9817 10.2331 73.0007 10.2331L80.1703 10.2532C80.1855 10.2532 80.2006 10.25 80.2145 10.2439C80.2284 10.2377 80.2409 10.2287 80.2511 10.2175L80.9522 9.43941C80.9542 9.43724 80.9554 9.43457 80.9559 9.4317C80.9563 9.42884 80.956 9.4259 80.9548 9.42325C80.9536 9.4206 80.9517 9.41834 80.9493 9.41676C80.9468 9.41517 80.944 9.41432 80.9411 9.41431L72.178 9.39813C72.1594 9.39813 72.1501 9.40743 72.1501 9.42602C72.1434 12.9519 72.1388 16.4779 72.1362 20.0041C72.1362 20.009 72.1362 20.014 72.1362 20.0189C72.1362 20.0232 72.1363 20.0275 72.1363 20.0318C72.1371 20.1161 72.1377 20.1939 72.0754 20.2562C69.9168 22.4152 67.7601 24.5719 65.6052 26.7263C65.5859 26.7457 65.5848 26.7661 65.6019 26.7877C67.6695 29.3875 69.8571 31.9086 72.2159 34.2501C73.2946 35.3206 74.4269 36.3309 75.6127 37.281C77.083 38.4596 78.7078 39.5405 80.4887 40.1853C81.2808 40.472 81.966 40.5704 82.7243 40.6792L82.725 40.6793L82.7256 40.6794C82.7796 40.6872 82.834 40.695 82.8888 40.7029C86.1886 41.1804 89.3958 40.1714 92.0217 38.1098C93.0558 37.2983 93.8601 36.5961 94.544 35.5162C95.4379 34.1036 96.0752 32.584 96.456 30.9576C96.4995 30.7702 96.5993 30.2765 96.5235 30.1209C96.5191 30.112 96.5125 30.1043 96.5044 30.0985C96.4963 30.0928 96.487 30.089 96.4771 30.0877C96.4673 30.0864 96.4572 30.0875 96.4479 30.091C96.4386 30.0944 96.4303 30.1001 96.4236 30.1075C94.4753 32.3096 92.0407 33.8507 89.1453 34.4576C86.3559 35.0427 83.4471 34.7398 80.7185 33.8914C77.9836 33.041 75.4389 31.8072 73.0844 30.1901C73.0683 30.1791 73.0552 30.1643 73.0461 30.1471C73.0369 30.1299 73.0321 30.1108 73.0319 30.0914Z" fill="#006738"/>
<path d="M105.935 43.9279C105.942 43.9279 105.949 43.9252 105.953 43.9203C105.958 43.9153 105.961 43.9087 105.961 43.9017C105.942 37.2847 105.921 30.6687 105.9 24.0535C105.9 24.0148 105.877 23.9793 105.83 23.947C104.396 22.9705 102.888 22.1313 101.305 21.4292C98.4177 20.1491 95.3505 19.3063 92.188 19.4051C88.3332 19.5261 85.0574 21.1849 82.5101 24.044C82.5019 24.0533 82.4912 24.06 82.4793 24.0634C82.4674 24.0668 82.4548 24.0667 82.4429 24.0632C82.431 24.0597 82.4204 24.0529 82.4122 24.0436C82.4041 24.0342 82.3988 24.0228 82.3969 24.0106C82.3794 23.9016 82.3796 23.7858 82.3974 23.6631C82.4595 23.2373 82.5518 22.8184 82.6741 22.4064C83.0623 21.1024 83.6085 19.8818 84.3128 18.7447C84.7752 17.9989 85.3402 17.3575 86.0196 16.783C86.0244 16.7789 86.1589 16.6636 86.4229 16.4372C88.9429 14.2781 92.1551 13.0744 95.4877 13.3773C95.8513 13.41 96.2928 13.483 96.721 13.5539C96.84 13.5736 96.9579 13.5931 97.0729 13.6115C98.1399 13.7822 99.1863 14.2033 100.141 14.7338C102.189 15.8705 104.01 17.3458 105.7 18.9349C108.465 21.5352 110.984 24.4144 113.341 27.3856C113.344 27.3899 113.346 27.3953 113.346 27.4009C113.345 27.4064 113.343 27.4117 113.339 27.4157L106.814 33.9489C106.799 33.9638 106.792 33.9818 106.792 34.003L106.787 44.7194C106.787 44.7477 106.773 44.7616 106.745 44.7612L97.9876 44.7423C97.9863 44.7423 97.9849 44.7422 97.9836 44.7418C97.9826 44.7415 97.9816 44.741 97.9807 44.7405C97.9786 44.7392 97.977 44.7374 97.976 44.7351C97.9757 44.7345 97.9754 44.7338 97.9753 44.7331C97.9748 44.7315 97.9747 44.7297 97.975 44.7281C97.9752 44.7271 97.9755 44.7261 97.9758 44.7252C97.9764 44.7239 97.9772 44.7227 97.9782 44.7216L98.7016 43.9173C98.7047 43.9139 98.7082 43.9109 98.712 43.9084C98.7145 43.9068 98.7171 43.9054 98.7198 43.9042C98.723 43.9027 98.7263 43.9016 98.7296 43.9009C98.7336 43.9 98.7377 43.8995 98.7417 43.8995L105.935 43.9279Z" fill="#006738"/>
<path d="M92.4797 43.7695L72.666 43.8292C72.6545 43.8292 72.6434 43.8246 72.6353 43.8163C72.6326 43.8136 72.6304 43.8106 72.6285 43.8074C72.6246 43.8007 72.6225 43.793 72.6225 43.7851L72.6476 36.6061C72.6476 36.5882 72.6409 36.5734 72.6275 36.5615L71.8283 35.8442C71.8134 35.8312 71.8059 35.8345 71.8059 35.8542L71.7953 44.6302C71.7953 44.638 71.7985 44.6455 71.8042 44.6511C71.8098 44.6566 71.8175 44.6597 71.8255 44.6597L82.5224 44.6631C82.5627 44.6631 82.6015 44.6791 82.63 44.7077L89.1146 51.194C89.1229 51.2023 89.134 51.2073 89.1457 51.208C89.1497 51.2083 89.1536 51.208 89.1575 51.2073C89.165 51.2059 89.1721 51.2027 89.1782 51.1979C90.8288 49.8856 92.4294 48.528 93.98 47.1251C96.1626 45.1511 98.2503 43.0333 100.046 40.6979C101.328 39.0318 102.606 36.9876 102.943 34.8703C102.96 34.7614 102.978 34.65 102.996 34.5377C103.064 34.1225 103.134 33.6952 103.165 33.3387C103.461 30.0306 102.274 26.844 100.14 24.3274C99.8005 23.9269 99.5817 23.6718 99.4836 23.5621C99.0805 23.1133 98.5881 22.7002 98.0066 22.3228C96.5605 21.3857 94.9969 20.7234 93.3157 20.336C93.0774 20.2813 92.8362 20.2529 92.5923 20.2506C92.5503 20.2506 92.5211 20.2566 92.5047 20.2685C92.5 20.272 92.4958 20.276 92.4922 20.2805C92.4894 20.284 92.487 20.2877 92.4849 20.2916C92.4801 20.3007 92.4774 20.3107 92.4769 20.321C92.4765 20.3314 92.4784 20.3417 92.4824 20.3512C92.4865 20.3607 92.4926 20.3692 92.5003 20.3761C95.1168 22.6931 96.7427 25.6565 97.074 29.1577C97.1826 30.3055 97.1707 31.4164 97.0383 32.4903C96.5469 36.4817 94.8463 40.3917 92.5778 43.7177C92.5544 43.7522 92.5217 43.7695 92.4797 43.7695Z" fill="#006738"/>
<path d="M94.5476 23.9248L89.5405 21.7127C89.5381 21.7115 89.5354 21.7109 89.5327 21.7109C89.53 21.7109 89.5273 21.7115 89.5249 21.7127L84.6383 23.9655C84.6351 23.967 84.6324 23.9694 84.6305 23.9723C84.6287 23.9753 84.6277 23.9787 84.6277 23.9822L84.6271 25.1374C84.6271 25.1404 84.6278 25.1434 84.6292 25.146C84.6306 25.1487 84.6326 25.151 84.6351 25.1527C84.6376 25.1544 84.6404 25.1555 84.6434 25.1558C84.6464 25.1562 84.6494 25.1558 84.6522 25.1547L89.4602 23.2387C89.4645 23.2371 89.4693 23.2371 89.4736 23.2387L94.5331 25.1536C94.5359 25.1546 94.5389 25.155 94.5419 25.1547C94.5449 25.1543 94.5477 25.1533 94.5502 25.1516C94.5527 25.1499 94.5547 25.1476 94.5561 25.1449C94.5575 25.1422 94.5582 25.1393 94.5582 25.1363L94.5587 23.9421C94.5588 23.9384 94.5578 23.9348 94.5558 23.9317C94.5538 23.9286 94.551 23.9262 94.5476 23.9248Z" fill="#333333"/>
<path d="M84.5869 25.6706L84.5875 30.3614C84.5875 30.3735 84.5913 30.3852 84.5983 30.395C84.6053 30.4048 84.6151 30.4122 84.6265 30.4161L89.488 32.0928C89.5 32.0968 89.5129 32.0968 89.5248 32.0928L94.5593 30.4362C94.5708 30.4323 94.5809 30.4249 94.588 30.415C94.5951 30.4051 94.5989 30.3932 94.5989 30.381L94.5983 25.67C94.5983 25.6583 94.5947 25.6468 94.588 25.6372C94.5814 25.6275 94.5719 25.6201 94.5609 25.6159L89.5271 23.7089C89.5137 23.704 89.499 23.7042 89.4858 23.7095L84.6237 25.6165C84.6129 25.6208 84.6035 25.6282 84.597 25.6379C84.5904 25.6475 84.5869 25.6589 84.5869 25.6706Z" fill="#333333"/>
<path d="M23.1294 9.6341C22.8633 9.8823 22.6268 10.4635 22.5063 10.8076C22.4766 10.8935 22.4994 10.9618 22.5749 11.0123L23.2772 11.4842C23.294 11.4955 23.3143 11.5004 23.3344 11.4978C23.3546 11.4952 23.373 11.4854 23.3865 11.4703C23.6211 11.2063 23.7991 10.9 23.9203 10.5516C23.9983 10.3266 23.8805 10.1862 23.7267 10.0031C23.7212 9.99657 23.7156 9.98995 23.71 9.98326C23.5813 9.82969 23.4278 9.70754 23.2493 9.61681C23.23 9.60704 23.2081 9.60346 23.1867 9.60655C23.1652 9.60964 23.1452 9.61926 23.1294 9.6341Z" fill="#333333"/>
<path fill-rule="evenodd" clip-rule="evenodd" d="M35.4465 35.118C35.4535 35.1315 35.458 35.146 35.4601 35.1608C35.4596 35.162 35.4592 35.1632 35.4588 35.1643L35.4584 35.1656L35.4581 35.1665C35.4563 35.1719 35.454 35.1806 35.454 35.1907C35.454 35.196 35.4547 35.2035 35.4576 35.2117C35.457 35.2142 35.4563 35.2167 35.4556 35.2191C35.4454 35.2527 35.4225 35.2811 35.3919 35.2982C35.1546 35.4298 34.9588 35.6152 34.8045 35.8543C34.5539 36.2428 34.2962 36.6268 34.0315 37.0061C33.9873 37.0696 33.8888 37.1245 33.8007 37.1737L33.8006 37.1738C33.7542 37.1996 33.7107 37.2239 33.6795 37.247C32.6197 38.0335 32.1813 39.0068 32.0029 40.2963C31.9926 40.3702 31.9807 40.4428 31.9687 40.5153C31.9398 40.6914 31.911 40.8663 31.9075 41.0532C31.9056 41.1559 31.898 41.2581 31.8846 41.36C31.8747 41.4349 31.8718 41.5117 31.869 41.5891C31.8656 41.6811 31.8621 41.7741 31.8467 41.8659C31.8255 41.9923 31.8164 42.102 31.8193 42.195C31.8246 42.377 31.8113 42.5657 31.7984 42.7478C31.7881 42.8932 31.7781 43.0345 31.7781 43.1649C31.7782 43.229 31.7792 43.2934 31.7802 43.3581C31.7841 43.6076 31.7881 43.86 31.7407 44.1037C31.7124 44.2464 31.7373 44.3981 31.7592 44.5318C31.7706 44.6012 31.7812 44.6658 31.7831 44.7217C31.7832 44.7261 31.7843 44.7304 31.7864 44.7343C31.7884 44.7382 31.7912 44.7416 31.7947 44.7443C31.7962 44.7455 31.7978 44.7465 31.7994 44.7473C31.8002 44.7477 31.801 44.7481 31.8018 44.7484C31.8034 44.7491 31.805 44.7496 31.8067 44.75C31.811 44.751 31.8155 44.751 31.8199 44.7501L31.8361 44.7462C31.8658 44.7403 31.879 44.722 31.8757 44.6915C31.864 44.5838 31.8759 44.4758 31.8872 44.3731L31.8872 44.373C31.8948 44.3039 31.9021 44.2372 31.9019 44.1745L31.9018 44.1635C31.9018 44.1582 31.9018 44.1529 31.9017 44.1477L31.9015 44.1248V44.1243C31.9004 44.0182 31.8995 43.9224 31.9237 43.8075C31.9461 43.7023 31.9493 43.5991 31.9525 43.4956C31.9552 43.4061 31.958 43.3162 31.9733 43.2246C31.9902 43.1246 31.9929 43.0255 31.9956 42.9266V42.9265C31.9979 42.8423 32.0002 42.7581 32.0112 42.6735C32.021 42.5993 32.0207 42.5229 32.0205 42.4468V42.4467C32.0202 42.3536 32.0199 42.261 32.038 42.1738C32.0719 42.0097 32.0825 41.8422 32.093 41.6747V41.6746C32.1034 41.5091 32.1138 41.3437 32.1468 41.1815C32.1585 41.1248 32.1611 41.0697 32.1638 41.0146C32.1666 40.9571 32.1693 40.8997 32.1825 40.8407C32.1955 40.7823 32.2044 40.723 32.2092 40.6628C32.2509 40.1177 32.3708 39.5909 32.569 39.0826C32.913 38.2005 33.5314 38.0244 34.2994 37.8056C34.3944 37.7786 34.4916 37.7509 34.5909 37.7211C34.8363 37.6475 35.0133 37.5694 35.1219 37.4868C35.3701 37.2972 35.5068 37.0194 35.6261 36.735C35.7388 36.4645 35.3032 36.2419 35.1074 36.1895C35.0721 36.1798 35.0447 36.1687 35.0254 36.156C34.9938 36.1348 34.9724 36.1132 34.9613 36.0913C34.9481 36.0657 34.944 36.0364 34.9498 36.0083C34.9556 35.9802 34.9709 35.9549 34.9931 35.9368C35.2909 35.6936 35.6562 35.5324 36.0233 35.4382C36.5213 35.3104 37.0272 35.1704 37.508 35.0009C37.7256 34.9236 37.9367 34.7932 38.1366 34.6698C38.1807 34.6426 38.2242 34.6157 38.2672 34.5898C38.3247 34.5556 38.3908 34.5387 38.4574 34.5413C38.7145 34.5508 39.0876 34.5602 39.2572 34.3276C39.4796 34.0238 39.6975 33.7533 39.9109 33.5161C40.0645 33.3456 40.207 33.3761 40.3477 33.4063C40.4584 33.43 40.568 33.4535 40.6812 33.3789C40.8612 33.2606 40.9722 33.0957 41.0142 32.8841C41.0566 32.6719 40.8781 32.4556 40.7361 32.2836C40.6952 32.2342 40.6574 32.1883 40.6287 32.1473C40.6247 32.1416 40.6193 32.137 40.6129 32.134C40.6105 32.1328 40.608 32.1319 40.6054 32.1313C40.605 32.1312 40.6047 32.1311 40.6043 32.131C40.6018 32.1305 40.5992 32.1302 40.5966 32.1301C40.5953 32.1301 40.5939 32.1301 40.5926 32.1302C40.5856 32.1308 40.5788 32.1332 40.5731 32.1372C40.5673 32.1411 40.5626 32.1466 40.5596 32.1529C40.4666 32.3504 40.3344 32.5162 40.163 32.6504C40.0681 32.7249 39.9433 32.9204 39.8033 33.1396C39.5498 33.5364 39.2469 34.0108 38.9828 33.9846C38.9721 33.9835 38.9618 33.9797 38.9529 33.9736C38.944 33.9676 38.9368 33.9594 38.9318 33.9498C38.9268 33.9403 38.9243 33.9296 38.9244 33.9189C38.9246 33.9081 38.9274 33.8975 38.9326 33.8881C38.9535 33.8503 38.9771 33.8124 39.0008 33.7745L39.001 33.7742C39.1267 33.5727 39.2527 33.3708 38.9744 33.1831C38.7859 33.0554 38.4462 33.0504 38.3012 33.0922C38.1138 33.1463 37.6475 33.4291 37.5387 33.6767C37.5336 33.6881 37.532 33.7006 37.534 33.7129C37.5361 33.7251 37.5417 33.7365 37.5502 33.7456C37.5586 33.7548 37.5696 33.7612 37.5818 33.7642C37.5939 33.7673 37.6067 33.7667 37.6185 33.7626C37.6277 33.7594 37.6369 33.7561 37.6461 33.7527C37.7034 33.7318 37.7612 33.7106 37.8232 33.7342C38.0524 33.8206 38.174 34.1001 37.9269 34.2652C37.6901 34.424 37.4576 34.5552 37.2297 34.659C37.1115 34.7129 37.08 34.6811 37.1354 34.5636C37.1638 34.5032 37.1987 34.4425 37.2339 34.3815L37.2343 34.3807C37.2834 34.2954 37.3329 34.2095 37.3647 34.1235C37.5248 33.6923 37.2537 33.3789 36.808 33.5072C36.5941 33.5685 36.4442 33.7266 36.3098 33.8684L36.2926 33.8865C36.2849 33.8946 36.2774 33.9026 36.2698 33.9104C36.156 34.0291 36.1214 34.0092 36.166 33.8507C36.2783 33.454 36.3585 33.0359 36.4064 32.5963C36.4262 32.4167 36.4473 32.2639 36.47 32.1378C36.4776 32.0956 36.4887 32.0475 36.5005 31.9967C36.5345 31.8494 36.574 31.6789 36.5487 31.5594C36.5474 31.553 36.5444 31.5469 36.5401 31.5419C36.5358 31.5369 36.5302 31.5331 36.524 31.5309C36.5178 31.5286 36.5111 31.528 36.5046 31.5291C36.498 31.5302 36.4919 31.533 36.4868 31.5371C36.4622 31.5568 36.4434 31.5804 36.4304 31.608L36.4249 31.6195C36.1689 32.1546 35.9426 32.6278 35.9005 33.2746C35.8972 33.3292 35.8892 33.4047 35.8766 33.501C35.8642 33.5953 35.8619 33.6975 35.8596 33.7952C35.8573 33.8963 35.855 33.9925 35.842 34.07C35.7843 34.4147 35.6553 34.732 35.4549 35.0221C35.4331 35.0539 35.4309 35.0873 35.4465 35.118ZM35.6803 34.9967C35.679 34.997 35.6776 34.9973 35.6763 34.9975L35.6767 34.9963L35.6771 34.9952C35.6774 34.9945 35.6777 34.9939 35.678 34.9932C35.6784 34.9921 35.6789 34.9911 35.6794 34.99C35.6804 34.9879 35.6815 34.9858 35.6827 34.9836C35.6849 34.9797 35.6874 34.9755 35.6903 34.9713C35.8899 34.675 36.0952 34.4481 36.306 34.2908C36.4715 34.1674 36.6548 34.1289 36.856 34.1754C37.0105 34.2111 37.0133 34.3405 36.9229 34.4448C36.872 34.5035 36.7803 34.5669 36.648 34.635C36.3405 34.7934 36.0279 34.9393 35.7103 35.0728L35.7102 35.0726L35.688 35.0386L35.6803 34.9967Z" fill="#333333"/>
<path d="M20.0683 11.5517C20.1983 11.9048 19.8486 12.5245 19.6009 12.8011C19.5824 12.8219 19.5565 12.8346 19.5287 12.8367C19.5009 12.8388 19.4735 12.83 19.452 12.8123L18.8044 12.2751C18.7826 12.2571 18.7672 12.2325 18.7603 12.2049C18.7535 12.1773 18.7557 12.1482 18.7665 12.1217C18.7796 12.0898 18.7931 12.0564 18.8071 12.0219C18.9453 11.6812 19.1279 11.2309 19.3483 10.9711C19.3645 10.952 19.3865 10.9387 19.411 10.9332C19.4354 10.9278 19.461 10.9305 19.4838 10.941C19.7731 11.0756 19.9679 11.2791 20.0683 11.5517Z" fill="#333333"/>
<path fill-rule="evenodd" clip-rule="evenodd" d="M17.3721 19.655C17.3301 19.6977 17.3012 19.6903 17.2856 19.6327C17.2774 19.6044 17.2806 19.5667 17.2951 19.5194C17.3085 19.4737 17.3172 19.4382 17.3213 19.4129C17.5076 18.1523 17.7006 16.8927 17.9003 15.634C17.9103 15.5715 17.8888 15.5359 17.8356 15.5269C17.8251 15.5251 17.8144 15.5268 17.805 15.5316C17.7957 15.5365 17.7882 15.5442 17.7837 15.5537C17.7297 15.6682 17.6695 15.7867 17.6079 15.9078L17.6079 15.9078C17.421 16.2755 17.2221 16.6666 17.1495 17.0413C16.9461 18.0895 16.7504 19.261 16.5622 20.5558C16.4982 20.9957 16.4596 21.3253 16.4462 21.5447C16.4138 22.0718 16.478 22.8705 16.8227 23.334C17.1434 23.7652 17.7385 23.7546 18.1792 23.4952C18.535 23.2855 18.7498 22.9837 18.9322 22.5827C19.162 22.0777 19.3492 21.5564 19.4938 21.0187C19.5228 20.9113 19.589 20.8748 19.6924 20.9094C19.7497 20.9286 19.8039 20.9523 19.8565 20.9753C20.0344 21.0531 20.1937 21.1227 20.3935 20.9819C20.509 20.9002 20.6108 20.7977 20.7119 20.6959C20.8412 20.5657 20.9693 20.4368 21.1231 20.3544C21.3202 20.2484 21.5081 20.1285 21.687 19.9947C21.7777 19.9262 21.8769 19.8753 21.9767 19.8241L21.9768 19.824L21.9768 19.824L21.9771 19.8238C22.0716 19.7753 22.1667 19.7264 22.2559 19.6622C22.3263 19.6116 22.3992 19.5622 22.4723 19.5127L22.4727 19.5125C22.6865 19.3678 22.9025 19.2216 23.0624 19.0392C23.345 18.7176 23.5633 18.3533 23.7173 17.9465C23.9081 17.445 23.8907 16.8509 23.8758 16.3388L23.8751 16.3167C23.8718 16.1966 23.8383 16.1875 23.7747 16.2894C23.5884 16.5891 23.4138 16.9091 23.251 17.2493C23.1424 17.4765 23.1567 17.7119 23.1752 18.0173L23.1752 18.0174L23.1752 18.0174L23.1753 18.0176L23.1753 18.0179C23.1783 18.067 23.1813 18.1178 23.184 18.1708C23.1924 18.3336 22.976 18.6582 22.7724 18.4931C22.7666 18.4885 22.76 18.4851 22.7529 18.4831C22.7457 18.4811 22.7383 18.4806 22.731 18.4815C22.7236 18.4825 22.7165 18.4849 22.7102 18.4886C22.7038 18.4923 22.6982 18.4973 22.6938 18.5032C22.5867 18.6489 22.4731 18.7906 22.353 18.9282C22.2805 19.011 22.1929 18.9819 22.1069 18.9533C22.0823 18.9451 22.0578 18.937 22.0339 18.9315C22.0157 18.9275 21.9986 18.9306 21.9826 18.941C21.8811 19.0065 21.8195 19.1032 21.7608 19.1953C21.6524 19.3654 21.5541 19.5196 21.2335 19.4313C21.2101 19.4249 21.1854 19.4256 21.1624 19.4334C21.1395 19.4411 21.1194 19.4556 21.1047 19.4748C21.0919 19.4916 21.0789 19.5088 21.0657 19.5262C20.8729 19.7805 20.6339 20.0959 20.3578 20.23C20.34 20.2386 20.3214 20.2414 20.302 20.2384C20.1317 20.2105 20.0239 20.1899 19.9785 20.1765C19.3687 19.9999 18.7557 19.856 18.1396 19.7448C18.1339 19.7437 18.1287 19.7411 18.1243 19.7373C18.12 19.7336 18.1168 19.7287 18.115 19.7232C18.1131 19.7178 18.1128 19.7119 18.114 19.7063C18.1152 19.7007 18.1179 19.6955 18.1217 19.6912C18.6058 19.149 19.0765 18.597 19.5468 18.0453C20.1143 17.3796 20.6813 16.7145 21.2709 16.068C22.175 15.0762 23.0223 14.0561 23.6749 13.0103C23.9549 12.5611 24.1508 12.0689 24.2628 11.5339C24.2637 11.5293 24.2634 11.5245 24.2617 11.5202C24.26 11.5158 24.2571 11.5121 24.2533 11.5093C24.2495 11.5066 24.245 11.5051 24.2404 11.5049C24.2357 11.5047 24.2311 11.5058 24.2271 11.5082C24.1645 11.5462 24.1296 11.6052 24.0956 11.6627C24.0857 11.6796 24.0758 11.6963 24.0653 11.7123C23.4194 12.6955 22.6614 13.6722 21.7913 14.6423C21.0803 15.4358 19.9213 16.7639 18.3142 18.6264C18.0118 18.9767 17.6978 19.3196 17.3721 19.655ZM17.6493 20.4331C18.1357 20.4035 19.394 20.4414 18.9907 21.3104C18.7509 21.8269 18.1658 22.1393 17.6432 21.9452C17.0904 21.7399 16.9119 20.4777 17.6493 20.4331Z" fill="#333333"/>
<path d="M19.6171 13.1787C19.7401 12.9524 19.8841 12.6874 20.0438 12.5228C20.059 12.5071 20.0788 12.4965 20.1003 12.4927C20.1218 12.4889 20.144 12.492 20.1637 12.5016C20.4348 12.6343 20.6307 12.8217 20.7516 13.0638C20.9312 13.4219 20.548 13.9523 20.3004 14.2262C20.1944 14.3437 20.0877 14.3525 19.9802 14.2524C19.8259 14.1081 19.6703 13.959 19.5133 13.8051C19.5077 13.7995 19.5008 13.7954 19.4933 13.793C19.4857 13.7906 19.4777 13.7901 19.4699 13.7915C19.462 13.7928 19.4547 13.796 19.4484 13.8008C19.4421 13.8056 19.437 13.8119 19.4336 13.819C19.3059 14.0912 19.1502 14.3908 18.9132 14.5815C18.8913 14.5991 18.8642 14.6088 18.8362 14.6089C18.8082 14.609 18.7811 14.5995 18.7592 14.5821L18.1145 14.0695C18.0992 14.0575 18.0884 14.0407 18.0837 14.0219C18.079 14.003 18.0806 13.9831 18.0882 13.9652C18.2615 13.5669 18.4685 13.1841 18.709 12.8167C18.7544 12.7476 18.8107 12.7314 18.878 12.7682C19.1264 12.9039 19.3308 13.0921 19.491 13.3327C19.4912 13.333 19.4915 13.3333 19.4917 13.3337C19.4919 13.334 19.4921 13.3343 19.4924 13.3345C19.4926 13.3348 19.4928 13.3351 19.4931 13.3354C19.4934 13.3358 19.4937 13.3362 19.4941 13.3365C19.4959 13.3383 19.4979 13.3399 19.5002 13.3411C19.5013 13.3416 19.5025 13.3421 19.5036 13.3425C19.5041 13.3427 19.5045 13.3428 19.505 13.3429C19.5056 13.3431 19.5063 13.3432 19.5069 13.3434C19.5087 13.3437 19.5106 13.3438 19.5124 13.3438C19.5132 13.3437 19.514 13.3437 19.5148 13.3436C19.5152 13.3435 19.5156 13.3434 19.516 13.3434L19.5165 13.3433C19.518 13.343 19.5194 13.3425 19.5208 13.342C19.5212 13.3418 19.5216 13.3416 19.522 13.3415C19.5228 13.3411 19.5237 13.3406 19.5245 13.3401C19.5282 13.3379 19.5313 13.3347 19.5334 13.331C19.56 13.2838 19.5878 13.2326 19.6168 13.1793L19.6171 13.1787Z" fill="#333333"/>
<path d="M22.4533 13.326C22.5593 13.1804 22.7055 12.9383 22.7395 12.7621C22.761 12.652 22.7387 12.6423 22.6725 12.7331C22.3452 13.1811 21.9695 13.6014 21.596 14.0192L21.5959 14.0193C21.4934 14.134 21.391 14.2486 21.2898 14.3634C21.1366 14.5374 21.0227 14.7221 20.9479 14.9173C20.9174 14.9961 20.9325 15.006 20.9931 14.9468C21.5096 14.4404 21.9887 13.9641 22.4533 13.326Z" fill="#333333"/>
<path d="M60.3075 14.5257C60.3119 14.529 60.317 14.5313 60.3224 14.5325C60.3279 14.5336 60.3335 14.5336 60.3389 14.5324C60.3443 14.5311 60.3493 14.5288 60.3537 14.5254C60.3581 14.5221 60.3618 14.5178 60.3644 14.5129C60.3752 14.4929 60.3866 14.4716 60.3985 14.4492C60.4049 14.4372 60.4114 14.4249 60.4181 14.4124C60.5425 14.1781 60.7168 13.8497 60.8903 13.708C60.8974 13.7022 60.9059 13.6985 60.915 13.6973C60.9241 13.6961 60.9333 13.6975 60.9416 13.7013C61.2536 13.8419 61.4712 14.0715 61.5942 14.3902C61.7164 14.7059 61.2278 15.3367 61.0242 15.5035C60.9599 15.5567 60.8892 15.5472 60.8122 15.4751C60.6542 15.3271 60.493 15.1727 60.3287 15.0121C60.3261 15.0096 60.3233 15.0074 60.3202 15.0055C60.3161 15.0028 60.3117 15.0008 60.307 14.9994C60.2989 14.9969 60.2903 14.9964 60.282 14.998C60.2737 14.9995 60.2659 15.003 60.2592 15.0082C60.2526 15.0134 60.2473 15.0201 60.2439 15.0277C60.1624 15.2068 59.7915 15.9586 59.5344 15.7495C59.3448 15.5955 59.152 15.4325 58.956 15.2603C58.9416 15.2478 58.9315 15.2311 58.9272 15.2124C58.9229 15.1938 58.9246 15.1742 58.932 15.1566C59.0915 14.7754 59.2854 14.4062 59.5138 14.0488C59.5762 13.9518 59.6655 13.9289 59.7664 13.9975C59.9698 14.1366 60.144 14.3062 60.2891 14.5062C60.295 14.5144 60.3011 14.5209 60.3075 14.5257Z" fill="#333333"/>
<path d="M42.2051 15.2765C42.1869 15.3107 42.1659 15.3124 42.1421 15.2815C42.0662 15.1833 41.5776 14.5798 41.427 14.813C41.2058 15.1551 41.0176 15.5085 40.8626 15.8733C40.8548 15.8916 40.853 15.9119 40.8575 15.9312C40.8621 15.9506 40.8726 15.968 40.8877 15.9809C41.055 16.1252 41.2205 16.2615 41.3841 16.3898C41.3876 16.3926 41.3912 16.3954 41.3946 16.3982C41.3997 16.4023 41.4046 16.4063 41.4095 16.4102L41.4095 16.4102C41.4911 16.4762 41.5477 16.5221 41.6384 16.4344C41.8284 16.2507 41.9703 16.0373 42.064 15.7941C42.0682 15.7831 42.0751 15.7734 42.084 15.7657C42.0928 15.758 42.1035 15.7526 42.1149 15.75C42.1264 15.7473 42.1383 15.7475 42.1496 15.7506C42.161 15.7536 42.1714 15.7593 42.18 15.7673L42.653 16.2013C42.6753 16.2217 42.7042 16.2332 42.7343 16.2337C42.7644 16.2343 42.7937 16.2237 42.8164 16.2041C43.0496 16.0021 43.4774 15.4477 43.3329 15.1047C43.2362 14.8756 43.0615 14.6931 42.8086 14.557C42.7272 14.5131 42.6558 14.5371 42.5944 14.6289C42.455 14.8368 42.3252 15.0526 42.2051 15.2765Z" fill="#333333"/>
<path d="M5.34764 18.2672C5.33049 18.3053 5.31273 18.3444 5.29451 18.3845C4.96021 19.1211 4.4714 20.1981 4.74804 21.0237C5.09497 22.0578 6.48214 22.1337 7.34668 21.905C8.64629 21.562 9.64023 20.4437 9.62963 19.0637C9.62885 18.956 9.62652 18.8487 9.62421 18.7426C9.61664 18.3945 9.60934 18.0593 9.65808 17.763C9.73895 17.2694 9.9576 16.6079 10.1857 16.2531C10.1984 16.2333 10.2172 16.2183 10.2393 16.2108C10.2835 16.1951 10.3049 16.2068 10.3034 16.2459C10.2859 16.6583 10.2726 17.0706 10.2633 17.483C10.2514 17.9928 10.2307 18.3636 10.2013 18.5952C9.94477 20.606 8.76732 23.2046 6.49107 23.5605C5.44079 23.7245 4.44852 23.2225 4.20366 22.1398C4.13505 21.8359 4.13951 21.3657 4.15178 21.0845C4.16517 20.7867 4.23061 20.4385 4.34812 20.0398C4.55449 19.3404 4.85848 18.6698 5.26007 18.028C5.26494 18.0204 5.27186 18.0143 5.28002 18.0105C5.28819 18.0066 5.29725 18.0052 5.30616 18.0063C5.31506 18.0074 5.32343 18.011 5.33029 18.0167C5.33714 18.0225 5.34219 18.03 5.34485 18.0386L5.35824 18.0787C5.37869 18.1431 5.37516 18.2059 5.34764 18.2672Z" fill="#333333"/>
<path d="M62.652 20.3684C62.6284 20.3701 62.6049 20.3638 62.5854 20.3505L62.4621 20.2668C62.4443 20.2549 62.4294 20.2579 62.4175 20.2758C62.3998 20.3016 62.3798 20.3336 62.3577 20.3689C62.2351 20.5646 62.0467 20.8653 61.8251 20.8218C61.7987 20.8167 61.7708 20.8103 61.742 20.8037C61.6457 20.7817 61.5404 20.7576 61.4537 20.7722C61.2194 20.8106 61.0122 21.0731 60.8297 21.3043C60.7337 21.4259 60.6445 21.5389 60.5618 21.6061C60.2344 21.871 59.7346 21.8794 59.4039 21.6378C59.0904 21.408 58.9454 20.9473 58.966 20.5692C59.0079 19.7988 59.1049 19.0069 59.2023 18.2115L59.2023 18.2108L59.2024 18.2106C59.2724 17.6391 59.3426 17.0658 59.3927 16.4974C59.3972 16.445 59.3776 16.4218 59.3341 16.4277C59.3305 16.4282 59.327 16.4292 59.3236 16.4305C59.3192 16.4322 59.315 16.4345 59.3113 16.4375C59.3046 16.4427 59.2994 16.4495 59.2962 16.4573C59.2804 16.4958 59.2645 16.5343 59.2486 16.5728C59.0424 17.0728 58.8363 17.5727 58.7373 18.1077C58.5362 19.1972 58.4016 20.2949 58.3335 21.4008C58.29 22.1147 58.4261 23.0468 59.2561 23.2492C59.8853 23.4024 60.2452 22.8268 60.5239 22.3811L60.5243 22.3804C60.5429 22.3507 60.5612 22.3215 60.5791 22.2932C60.7425 22.035 61.0655 21.6696 61.4085 21.7254C61.6642 21.7669 61.8309 21.5969 61.9992 21.4252C62.1004 21.3219 62.2022 21.2181 62.3243 21.1593C62.3639 21.1403 62.4025 21.1232 62.4402 21.1066C62.5631 21.0522 62.6769 21.0019 62.7862 20.9016C62.8203 20.8703 62.8551 20.8392 62.89 20.8079L62.8921 20.806C63.0874 20.6311 63.2856 20.4537 63.4031 20.2272C63.5592 19.9249 63.687 19.5875 63.649 19.2389C63.6487 19.2352 63.6474 19.2316 63.6453 19.2285C63.6432 19.2254 63.6404 19.2228 63.6371 19.2211C63.6337 19.2193 63.6301 19.2184 63.6263 19.2184C63.6241 19.2184 63.6218 19.2187 63.6197 19.2193C63.6183 19.2198 63.6169 19.2203 63.6156 19.221C63.5974 19.2307 63.5832 19.2484 63.5732 19.274C63.5675 19.288 63.5619 19.3022 63.5564 19.3164C63.5527 19.3257 63.5491 19.335 63.5455 19.3444L63.5355 19.3706L63.5349 19.372L63.5348 19.3722C63.4709 19.539 63.4046 19.712 63.2692 19.8307C63.2536 19.8441 63.2357 19.85 63.2157 19.8485C63.1625 19.8444 63.1119 19.8301 63.0639 19.8056C63.0563 19.8018 63.048 19.7998 63.0395 19.7997C63.031 19.7997 63.0226 19.8016 63.0151 19.8054C63.0075 19.8091 63.0009 19.8146 62.9958 19.8213C62.9908 19.828 62.9874 19.8358 62.9859 19.8441C62.9509 20.0411 62.8607 20.2068 62.7153 20.341C62.6979 20.357 62.6756 20.3667 62.652 20.3684Z" fill="#333333"/>
<path d="M15.3725 19.776C15.3814 19.782 15.3916 19.7861 15.4022 19.7879C15.4128 19.7897 15.4237 19.7893 15.4341 19.7866C15.4444 19.7839 15.4541 19.779 15.4625 19.7723C15.4708 19.7656 15.4776 19.7571 15.4824 19.7476L15.58 19.5551C15.5863 19.5426 15.5955 19.5317 15.6068 19.5234C15.6182 19.5151 15.6313 19.5096 15.6452 19.5073C15.659 19.505 15.6732 19.506 15.6866 19.5103C15.7 19.5145 15.7122 19.5219 15.7222 19.5317C15.9978 19.8017 15.7088 20.5987 15.3273 20.6584C15.2283 20.6739 15.145 20.6381 15.0618 20.6023C14.9658 20.561 14.8701 20.5198 14.7506 20.5574C14.6095 20.6021 14.4795 20.77 14.3925 20.9172C14.2601 21.1425 14.1231 21.3649 13.9814 21.5843C13.8658 21.7639 13.6901 21.8256 13.4543 21.7695C13.3484 21.7442 13.2316 21.7725 13.1041 21.8543C12.8442 22.0213 12.6824 22.2678 12.5192 22.5164C12.3538 22.7684 12.1869 23.0227 11.9149 23.199C11.4503 23.5008 10.8663 23.2325 10.6175 22.7885C10.3939 22.3897 10.3258 21.8732 10.3554 21.4097C10.4238 20.334 10.5536 19.266 10.7447 18.2059C10.8418 17.6663 11.0452 17.1638 11.2502 16.657L11.2504 16.6565C11.2702 16.6076 11.29 16.5587 11.3097 16.5097C11.3127 16.5022 11.3178 16.4956 11.3243 16.4908C11.3308 16.4859 11.3385 16.483 11.3465 16.4822C11.3546 16.4815 11.3627 16.483 11.37 16.4865C11.3773 16.4901 11.3834 16.4956 11.3878 16.5025C11.4045 16.5285 11.411 16.564 11.4073 16.609C11.3475 17.3093 11.2638 18.0084 11.1802 18.7073L11.1802 18.7074C11.1359 19.0773 11.0916 19.4472 11.0509 19.8173L11.0485 19.8388C10.989 20.3783 10.9089 21.1045 11.2997 21.5519C11.6589 21.9636 12.375 21.982 12.7248 21.543C12.7486 21.5131 12.7745 21.4792 12.8024 21.4428L12.8024 21.4427C13.0085 21.1733 13.319 20.7674 13.6507 20.8268C14.0563 20.9001 14.2003 20.6196 14.3623 20.3038L14.3624 20.3037C14.3866 20.2565 14.4112 20.2086 14.4371 20.1609C14.6279 19.8089 14.967 19.5021 15.3725 19.776Z" fill="#333333"/>
<path d="M24.7084 16.5733C24.2974 17.3782 24.0213 18.173 24.0453 19.0911C24.0664 19.8881 24.0832 20.8899 23.8378 21.8782C23.8166 21.9638 23.8456 22.003 23.9248 21.9959C23.9505 21.9934 23.9741 21.981 23.9906 21.9613C24.4904 21.3645 24.7079 20.3656 24.7319 19.607C24.7385 19.3988 24.7442 19.1906 24.7499 18.9825L24.7499 18.9822C24.7722 18.1616 24.7946 17.3423 24.8769 16.5237C24.8773 16.5194 24.8769 16.515 24.8756 16.5109C24.8743 16.5068 24.8722 16.503 24.8694 16.4998C24.8666 16.4965 24.8631 16.4939 24.8592 16.4921C24.8574 16.4912 24.8556 16.4906 24.8537 16.4901C24.8514 16.4895 24.8491 16.4891 24.8468 16.4891C24.7839 16.4872 24.7378 16.5153 24.7084 16.5733Z" fill="#333333"/>
<path d="M54.2345 18.654C54.2356 18.6516 54.2366 18.6492 54.2375 18.6467C54.2387 18.6432 54.2395 18.6395 54.24 18.6357C54.2409 18.6282 54.2404 18.6206 54.2383 18.6133C54.2363 18.606 54.2329 18.5991 54.2282 18.5931C54.2235 18.5872 54.2177 18.5822 54.2111 18.5785C54.0359 18.4825 53.7503 18.3202 53.863 18.0726C54.0828 17.5884 54.442 17.2002 54.8475 16.7847C55.0215 16.6062 55.2507 16.4545 55.5017 16.5549C55.6975 16.6335 55.8565 16.8706 55.7622 17.0814C55.6622 17.3067 55.5287 17.2593 55.3865 17.2089C55.3313 17.1893 55.2748 17.1692 55.2184 17.1645C54.9715 17.1441 54.7846 17.2378 54.6578 17.4457C54.5831 17.5678 54.7443 17.729 54.8564 17.7753C55.364 17.9867 55.8127 17.7668 56.2623 17.5465L56.2904 17.5327C56.3469 17.5048 56.3923 17.5063 56.4265 17.5371C56.442 17.5509 56.452 17.5698 56.4547 17.5903C56.4573 17.6108 56.4525 17.6316 56.441 17.6487C56.3217 17.8283 56.2174 17.9348 56.016 18.0413C55.2691 18.4362 54.7131 18.7508 54.1224 19.2088C54.1099 19.2186 54.1009 19.2322 54.0969 19.2475C54.0928 19.2628 54.094 19.279 54.1001 19.2935C54.1611 19.4374 54.3394 19.5841 54.4734 19.6943C54.5254 19.7371 54.5707 19.7744 54.5998 19.8039C54.9897 20.1971 54.6428 20.8224 54.2858 21.089C54.1331 21.203 53.9299 21.2049 53.7392 21.2067C53.6938 21.2071 53.649 21.2075 53.6059 21.2095C53.4899 21.2147 53.3753 21.2372 53.2623 21.277C52.6906 21.4772 52.3626 21.6055 51.9845 22.0506C51.8041 22.2627 51.6283 22.4789 51.4529 22.6948L51.4524 22.6953L51.4523 22.6955L51.452 22.6958L51.452 22.6959L51.4519 22.6959C50.6727 23.6545 49.8987 24.6066 48.7505 25.1691C48.5293 25.2773 48.3063 25.3808 48.0817 25.4798C48.0341 25.5006 47.9958 25.5045 47.9668 25.4915C47.958 25.4875 47.9502 25.4815 47.9441 25.474C47.9379 25.4666 47.9335 25.4578 47.9313 25.4484C47.929 25.439 47.9289 25.4292 47.931 25.4197C47.9331 25.4103 47.9374 25.4014 47.9434 25.3939C47.9732 25.3567 48.0102 25.3217 48.0544 25.289C48.3396 25.0767 48.6237 24.8632 48.9067 24.6487C49.4533 24.2333 49.9456 23.7639 50.3837 23.2403C50.6231 22.9535 50.8743 22.5927 51.1238 22.2344C51.2357 22.0737 51.3473 21.9134 51.4574 21.7606C51.5024 21.6978 51.5435 21.6271 51.5856 21.5549C51.6311 21.4768 51.6776 21.3968 51.7312 21.3233C52.0071 20.9451 52.3329 20.6158 52.7084 20.3355C52.7356 20.3151 52.7624 20.2955 52.7889 20.2761C52.923 20.178 53.0481 20.0866 53.1552 19.945C53.2764 19.784 53.4062 19.6306 53.5445 19.4849C53.6045 19.4219 53.6449 19.3532 53.685 19.2847C53.7204 19.2245 53.7556 19.1645 53.8039 19.1089C53.8508 19.0552 53.9115 18.9986 53.9736 18.9408C54.0739 18.8475 54.1777 18.7508 54.2328 18.6571C54.2334 18.6561 54.234 18.655 54.2345 18.654Z" fill="#333333"/>
<path d="M43.3161 19.728C43.2946 19.7768 43.2641 19.8182 43.2247 19.8524C43.2094 19.8654 43.1919 19.8725 43.1722 19.8736C42.7857 19.8922 42.7253 19.5502 42.6738 19.2587L42.6737 19.2584L42.6735 19.257C42.6714 19.2449 42.6692 19.2329 42.6671 19.221L42.6648 19.208C42.6636 19.2017 42.6625 19.1954 42.6613 19.1892C42.6535 19.1461 42.6412 19.1165 42.6245 19.1006C42.5955 19.0727 42.5667 19.0727 42.5381 19.1006C42.46 19.1746 42.4057 19.242 42.3752 19.303C42.1357 19.7827 42.0969 20.2737 42.2586 20.7761C42.2633 20.7907 42.2639 20.8063 42.2604 20.8213C42.2568 20.8362 42.2493 20.8499 42.2385 20.8609C42.0078 21.0921 41.8331 21.0287 41.5562 20.9282L41.5291 20.9183C41.0955 20.7617 40.8531 21.0697 40.6142 21.3733C40.5061 21.5107 40.3987 21.6473 40.2746 21.7394C39.945 21.9831 39.4575 21.9831 39.1373 21.7293C38.8495 21.5017 38.6839 21.0293 38.7084 20.6668C38.7558 19.9627 38.8544 19.1519 38.9556 18.3189L38.9557 18.3188C39.0259 17.741 39.0974 17.1525 39.1541 16.5817C39.1546 16.5764 39.1541 16.5712 39.1524 16.5661C39.1508 16.5611 39.1482 16.5565 39.1447 16.5525C39.1412 16.5485 39.1369 16.5453 39.1321 16.543C39.1273 16.5408 39.122 16.5395 39.1167 16.5393C39.0758 16.5382 39.047 16.5577 39.0302 16.5978C38.9094 16.8909 38.7956 17.1865 38.6889 17.4847C38.5926 17.7539 38.5177 18.0363 38.4641 18.3319C38.2321 19.6118 38.1008 20.7943 38.0703 21.8794C38.0586 22.2966 38.2622 22.9062 38.6108 23.1706C39.1792 23.6006 39.7598 23.3178 40.0878 22.7746C40.278 22.4594 40.4849 22.1181 40.8012 21.9139C40.9735 21.8029 41.0951 21.8152 41.2998 21.8431C41.6434 21.8907 41.8984 21.66 42.155 21.428C42.2894 21.3063 42.4243 21.1843 42.5726 21.1018C42.5804 21.0973 42.5891 21.0947 42.598 21.0941C42.6069 21.0935 42.6158 21.095 42.624 21.0985C42.7556 21.1543 42.8441 21.182 42.8895 21.1816C44.2426 21.1755 44.9203 19.8647 45.3704 18.7966C45.3768 18.7819 45.3788 18.7657 45.3762 18.7499C45.3736 18.7341 45.3666 18.7193 45.3559 18.7073C45.3187 18.6653 45.2808 18.6711 45.2421 18.7246C45.1893 18.7973 45.1328 18.8848 45.0743 18.9756C44.9373 19.188 44.789 19.4179 44.6503 19.5155C44.3865 19.7002 43.8081 19.6661 43.8421 19.2166C43.8661 18.9014 44.1299 18.5249 44.4819 18.545C44.5424 18.5483 44.6159 18.5796 44.6914 18.6118C44.8196 18.6665 44.9536 18.7236 45.0396 18.6499C45.1259 18.5759 45.1624 18.4859 45.149 18.3799C45.1228 18.1702 44.8997 18.0257 44.7005 18.0151C44.324 17.9956 43.9994 18.3197 43.8393 18.6203C43.7092 18.865 43.5348 19.2342 43.3161 19.728Z" fill="#333333"/>
<path d="M32.6515 17.8054C32.6752 17.7643 32.7034 17.7118 32.7348 17.6531C32.855 17.4286 33.0231 17.1149 33.1708 17.0123C33.1864 17.0015 33.2034 16.9976 33.2216 17.0006C33.5189 17.0502 33.7961 17.4339 33.8948 17.695C34.0036 17.9822 33.53 18.6019 33.3465 18.767C33.271 18.8347 33.19 18.8298 33.1033 18.7525C32.9442 18.6101 32.7839 18.4602 32.6225 18.3029C32.6161 18.2966 32.6081 18.292 32.5995 18.2894C32.5908 18.2868 32.5817 18.2863 32.5729 18.288C32.564 18.2897 32.5557 18.2935 32.5488 18.2992C32.5418 18.3048 32.5363 18.312 32.5327 18.3202C32.4619 18.4848 32.1122 19.1747 31.8701 19.0598C31.856 19.0528 31.8006 19.0108 31.7039 18.9338C31.5485 18.8096 31.4001 18.6837 31.2588 18.5562C31.2412 18.5404 31.229 18.5195 31.2239 18.4964C31.2188 18.4733 31.2211 18.4492 31.2303 18.4273C31.3951 18.0447 31.5909 17.6758 31.8177 17.3207C31.9984 17.0385 32.4943 17.6827 32.5857 17.8088C32.5896 17.8141 32.5948 17.8183 32.6008 17.8211C32.6067 17.8239 32.6133 17.8252 32.6198 17.8249C32.6263 17.8246 32.6327 17.8226 32.6382 17.8192C32.6437 17.8158 32.6483 17.8111 32.6515 17.8054Z" fill="#333333"/>
<path d="M7.44214 19.8993C7.65595 19.7108 7.81231 19.5079 7.91122 19.2908C8.23284 18.5834 7.8762 18.3065 7.40608 17.9415C7.36907 17.9127 7.33136 17.8835 7.29322 17.8534C7.28974 17.8507 7.28573 17.8487 7.28145 17.8476C7.27716 17.8465 7.2727 17.8463 7.26835 17.8471C7.26399 17.8478 7.25984 17.8494 7.25615 17.8519C7.25246 17.8543 7.24932 17.8575 7.24692 17.8612C6.97324 18.2888 6.73898 18.7371 6.54413 19.206C6.52517 19.2521 6.53372 19.2922 6.56979 19.3264C6.79178 19.5373 7.02976 19.7351 7.28373 19.9199C7.33319 19.9556 7.38599 19.9487 7.44214 19.8993Z" fill="#333333"/>
<path d="M46.9946 21.0516C46.9975 21.0428 46.9979 21.0333 46.9957 21.0243C46.9934 21.0153 46.9887 21.0071 46.982 21.0006C46.9752 20.9942 46.9668 20.9898 46.9577 20.988C46.9486 20.9861 46.9391 20.9869 46.9304 20.9903C46.9067 20.9994 46.883 21.0092 46.8592 21.019C46.7542 21.0623 46.6487 21.1058 46.5372 21.0963C46.2723 21.0734 45.985 20.886 45.9644 20.597C45.9596 20.5271 46.0014 20.3817 46.0899 20.1609C46.2137 19.8511 46.3634 19.5548 46.5389 19.2718C46.7124 18.9918 46.9416 18.7642 47.2924 18.9544C48.1475 19.4179 47.4899 21.1587 47.177 21.8119C47.013 22.1543 46.7804 22.5464 46.4262 22.682C45.9417 22.8668 45.4538 23.0291 44.9626 23.1689C44.8262 23.2076 44.7983 23.1671 44.879 23.0473C44.9154 22.993 44.9894 22.927 45.101 22.8493C45.3966 22.6433 45.6931 22.4392 45.9906 22.2369C46.5043 21.8877 46.8122 21.5999 46.9946 21.0516Z" fill="#333333"/>
<path d="M55.2541 23.305C56.3339 23.1247 57.0674 22.5303 57.4545 21.5218C57.8527 20.4838 57.7139 19.4798 56.682 18.9014C56.5994 18.8549 56.5392 18.8728 56.5013 18.955C56.2361 19.5239 56.0506 19.9108 55.9446 20.1157C55.8777 20.2462 55.8883 20.3483 55.9764 20.4219C56.281 20.6768 56.5905 20.9457 56.7986 21.2892C56.8978 21.4525 56.8856 21.607 56.7617 21.7527C56.4208 22.1536 56.0515 22.505 55.654 22.8069C55.4216 22.9839 55.2651 23.1096 55.1844 23.184C55.1662 23.2007 55.155 23.2174 55.1509 23.2342C55.1394 23.2799 55.1669 23.3039 55.2335 23.3061C55.2343 23.3062 55.2351 23.3062 55.2359 23.3062L55.2378 23.3063C55.2393 23.3063 55.2408 23.3063 55.2423 23.3062C55.2463 23.3061 55.2502 23.3057 55.2541 23.305Z" fill="#333333"/>
<path d="M26.4955 22.3869C26.0666 22.9854 25.414 23.2699 24.7068 23.4227C24.6943 23.4254 24.6813 23.425 24.669 23.4214C24.6567 23.4178 24.6455 23.4111 24.6365 23.4021C24.6274 23.393 24.6208 23.3818 24.6172 23.3696C24.6136 23.3573 24.6131 23.3443 24.6159 23.3318C24.624 23.295 24.6536 23.2569 24.7045 23.2174C24.7262 23.2007 24.7477 23.1841 24.7693 23.1675C25.2058 22.8307 25.6216 22.5099 26.0075 22.108C26.1235 21.9872 26.2174 21.8671 26.2892 21.7477C26.4739 21.4399 25.8481 20.8875 25.5495 20.6239C25.51 20.589 25.4763 20.5592 25.4508 20.5357C25.3597 20.4517 25.3417 20.3544 25.3967 20.244C25.5923 19.8502 25.7816 19.4501 25.9645 19.0437C25.9921 18.9819 26.0363 18.9659 26.0973 18.9957C27.519 19.6907 27.2524 21.3322 26.4955 22.3869Z" fill="#333333"/>
<path fill-rule="evenodd" clip-rule="evenodd" d="M48.7633 21.2217C48.7953 21.2392 48.8009 21.2628 48.78 21.2926C48.6402 21.4945 48.5155 21.7204 48.4058 21.9703C48.2686 22.2826 48.1464 22.9347 48.4772 23.1762C48.7957 23.4093 49.2748 23.2163 49.5085 22.9486C50.1086 22.2625 50.8683 20.5641 49.9865 19.8C49.8619 19.6922 49.7275 19.5981 49.5832 19.5178C49.4616 19.4501 49.3729 19.4752 49.3172 19.5931C49.2038 19.8322 48.9885 20.3148 48.6713 21.041C48.6408 21.1109 48.6715 21.1712 48.7633 21.2217ZM49.6033 22.1354C49.4594 22.3362 49.1007 22.4566 48.8704 22.368C48.4576 22.209 48.799 21.6747 48.9686 21.4633L48.9711 21.4601C49.03 21.3865 49.0548 21.3556 49.1571 21.398C49.4215 21.5084 49.8192 21.8336 49.6033 22.1354Z" fill="#333333"/>
<path d="M36.1784 20.8854C36.7127 20.6578 37.1444 20.3667 37.3993 19.848C37.4555 19.7342 37.5023 19.7379 37.5399 19.8591C37.5429 19.8692 37.5373 19.9063 37.5232 19.9707C37.3614 20.6913 36.9793 21.5291 36.3468 21.9468C35.5174 22.4951 34.5887 22.7841 33.6026 22.9726C32.3283 23.2165 31.0456 23.2714 29.7546 23.1371C29.3939 23.0996 29.0722 22.9981 28.7896 22.8326C28.3289 22.5621 28.2475 22.1298 28.3066 21.6295C28.3609 21.1717 28.4472 20.7205 28.5654 20.2758C28.5829 20.2092 28.6191 20.1756 28.6742 20.1748C28.6974 20.1744 28.72 20.1827 28.7374 20.1981C28.7547 20.2135 28.7656 20.2349 28.7679 20.2579C28.7725 20.3057 28.7755 20.3557 28.7786 20.4066C28.7919 20.6287 28.8062 20.8682 28.9664 21.0221C29.4417 21.4772 30.4986 21.5514 31.12 21.5837C32.7911 21.6708 34.6256 21.548 36.1784 20.8854Z" fill="#333333"/>
<path d="M14.8108 25.7924L14.8107 25.7924C14.788 25.7756 14.7651 25.7587 14.7421 25.7414C14.7305 25.7324 14.7216 25.7205 14.7163 25.7068C14.711 25.6931 14.7095 25.6783 14.712 25.6638C14.7485 25.4623 14.8033 25.2665 14.8766 25.0765C15.0309 24.6775 15.2252 24.3019 15.4594 23.9498C15.462 23.946 15.463 23.9413 15.4622 23.9368C15.4615 23.9322 15.4591 23.9281 15.4555 23.9253L15.4416 23.9147C15.4345 23.9092 15.4255 23.9065 15.4166 23.9073C15.4076 23.908 15.3992 23.912 15.3931 23.9186C15.2856 24.0335 15.1683 24.2084 15.0411 24.4434C14.726 25.0246 14.2837 25.8958 14.403 26.5055C14.5051 27.027 14.9591 26.9774 15.1387 26.5507C15.3041 26.1573 15.0746 25.9875 14.8108 25.7924Z" fill="#333333"/>
<path d="M40.0136 25.5958C39.8942 25.8557 39.7438 26.0892 39.5623 26.2963C39.5476 26.3131 39.5272 26.324 39.505 26.3268C39.4829 26.3297 39.4604 26.3244 39.4419 26.3119L38.7402 25.8412C38.7239 25.8301 38.7101 25.8157 38.6997 25.7988C38.6893 25.7818 38.6826 25.7628 38.6799 25.743C38.6448 25.4664 39.1089 24.6972 39.2427 24.5109C39.4474 24.2253 40.1028 25.0068 40.1201 25.241C40.1253 25.3109 40.0898 25.4292 40.0136 25.5958Z" fill="#333333"/>
<path d="M11.3676 26.4656C11.3732 26.4671 11.3784 26.4699 11.3828 26.4737C11.4338 26.5176 11.4912 26.5746 11.5523 26.6352C11.6961 26.778 11.8599 26.9406 12.0075 26.9986C12.0164 27.0021 12.026 27.0034 12.0356 27.0022C12.0451 27.0011 12.0543 26.9975 12.0621 26.9919C12.3499 26.7833 12.5714 26.4045 12.6629 26.0883C12.6991 25.9628 12.669 25.8267 12.611 25.719C12.5463 25.5997 12.0711 24.9872 11.8976 25.2327C11.7277 25.4729 11.5758 25.7202 11.4419 25.9745C11.438 25.9818 11.4324 25.9881 11.4254 25.9926C11.4185 25.9972 11.4105 25.9998 11.4022 26.0004C11.3939 26.001 11.3856 25.9994 11.3781 25.9958C11.3706 25.9923 11.3642 25.9868 11.3593 25.9801C11.2411 25.8122 10.9059 25.4028 10.6794 25.4257C10.6688 25.4267 10.6585 25.4301 10.6493 25.4356C10.6402 25.4411 10.6324 25.4485 10.6264 25.4574C10.4134 25.7821 10.1696 26.2188 10.0056 26.6159C9.98742 26.6609 9.99653 26.6994 10.033 26.7314C10.069 26.763 10.109 26.7995 10.1515 26.8384C10.3242 26.9963 10.5393 27.1929 10.7062 27.2574C10.724 27.2641 10.7413 27.2624 10.7581 27.2523C11.0178 27.0921 11.1699 26.7907 11.3049 26.5231L11.3059 26.5212C11.312 26.509 11.3181 26.4969 11.3242 26.4849C11.3267 26.4797 11.3304 26.4753 11.335 26.4718C11.3396 26.4684 11.3449 26.466 11.3505 26.4649C11.3562 26.4639 11.362 26.4641 11.3676 26.4656Z" fill="#333333"/>
<path d="M13.688 29.2313L13.4303 29.7394C13.4157 29.7681 13.3952 29.7934 13.37 29.8135C13.3449 29.8336 13.3158 29.8482 13.2846 29.8561C13.2534 29.8641 13.2208 29.8653 13.1891 29.8597C13.1574 29.8541 13.1273 29.8418 13.1007 29.8237L12.7783 29.6033C12.7341 29.5732 12.702 29.5283 12.6877 29.4768C12.6734 29.4252 12.6778 29.3703 12.7002 29.3217L12.9769 28.7215C12.9922 28.6881 13.0155 28.659 13.0447 28.6366C13.0739 28.6142 13.1081 28.5993 13.1443 28.593C13.1806 28.5868 13.2178 28.5896 13.2527 28.601C13.2877 28.6124 13.3194 28.6321 13.345 28.6585L13.6484 28.9714C13.6812 29.0052 13.7027 29.0484 13.7098 29.095C13.7169 29.1416 13.7093 29.1893 13.688 29.2313Z" fill="#333333"/>
<path d="M49.823 34.5569C49.7654 34.2553 49.6356 33.9913 49.4337 33.7649C49.4276 33.7579 49.4243 33.7488 49.4246 33.7395C49.4249 33.7303 49.4288 33.7216 49.4354 33.7152C49.4838 33.668 49.5326 33.6204 49.5817 33.5725C49.9202 33.2419 50.2736 32.8969 50.6379 32.5846C50.8505 32.4028 51.0618 32.1986 51.2654 31.9995C51.7284 31.5474 52.1895 31.0931 52.6487 30.6369C52.753 30.5335 52.8555 30.4173 52.9591 30.2997L52.9591 30.2997C53.0416 30.2061 53.1248 30.1117 53.2104 30.0222C53.5846 29.6323 53.8808 29.2341 53.9595 28.7098C53.9732 28.6194 53.9476 28.6064 53.8825 28.6708C53.7185 28.834 53.5595 29.0104 53.4056 29.2001C53.2111 29.4399 53.0197 29.6307 52.8164 29.8335C52.7941 29.8557 52.7717 29.878 52.7491 29.9006C52.699 29.9507 52.6473 30.0096 52.5935 30.0708C52.516 30.159 52.4342 30.252 52.3469 30.3307C51.9927 30.6512 51.6582 30.9868 51.3222 31.3238L51.3208 31.3252C51.2621 31.3841 51.2033 31.4431 51.1444 31.502C51.1041 31.5421 51.0518 31.5852 50.9973 31.6302C50.9389 31.6785 50.8779 31.7289 50.8265 31.7798C50.7314 31.8738 50.6389 31.9634 50.5492 32.0502L50.549 32.0504L50.5488 32.0505C50.0343 32.5484 49.6148 32.9543 49.374 33.5797C49.2543 33.891 49.1362 34.1123 48.9954 34.3761L48.9953 34.3763L48.9952 34.3764L48.9948 34.3773C48.9877 34.3904 48.9844 34.4052 48.9851 34.4201C48.9859 34.4351 48.9908 34.4496 48.9992 34.4621C49.1152 34.6301 49.2127 34.8112 49.2915 35.0053C49.3996 35.271 49.2889 35.5126 49.1797 35.7509C49.1593 35.7953 49.1391 35.8395 49.1203 35.8838C49.063 36.0191 48.9935 36.1542 48.9235 36.2905L48.9233 36.2909L48.9232 36.291C48.7723 36.5846 48.6187 36.8835 48.5775 37.2007C48.5336 37.5392 48.8143 37.6772 49.0723 37.8041C49.1285 37.8317 49.1836 37.8588 49.234 37.8873C49.4928 38.0335 49.195 38.4752 49.0767 38.6264C48.6333 39.1947 47.7833 39.4134 47.1 39.2962C46.6486 39.2189 46.3779 38.9664 46.2879 38.5388C46.1797 38.0245 46.4229 37.4383 46.6081 36.9966C46.7378 36.6872 46.8697 36.3786 47.0035 36.0707C47.0515 35.9606 47.0846 35.8464 47.1028 35.7282C47.104 35.7202 47.103 35.712 47.1 35.7045C47.0982 35.7 47.0956 35.6959 47.0925 35.6922C47.0904 35.6898 47.0881 35.6875 47.0855 35.6856C47.079 35.6807 47.0714 35.6776 47.0634 35.6766C47.0553 35.6757 47.0472 35.6769 47.0398 35.6802C47.0242 35.6869 47.0093 35.7038 46.9952 35.731C46.5629 36.5615 46.1496 37.377 45.946 38.2978C45.9003 38.5046 45.8768 38.698 45.8757 38.8779C45.8712 39.608 46.2299 40.4045 47.0297 40.4787C47.4957 40.5222 47.9091 40.4077 48.2702 40.1351C48.5022 39.96 48.7834 39.699 48.9373 39.4468C48.9723 39.3893 49.0086 39.3314 49.0449 39.2734C49.1619 39.0864 49.2803 38.8973 49.3646 38.7117C49.5185 38.3718 49.6299 38.0175 49.6987 37.6486C49.7288 37.4846 49.7338 37.1215 49.6724 36.9832C49.6044 36.8305 49.4588 36.7323 49.333 36.6475C49.2814 36.6127 49.2331 36.5801 49.195 36.547C49.1258 36.4868 49.1063 36.4271 49.1364 36.368C49.3171 36.0143 49.5023 35.6696 49.6914 35.3205C49.7234 35.2613 49.7619 35.1358 49.8069 34.944C49.8403 34.803 49.8457 34.674 49.823 34.5569Z" fill="#333333"/>
<path d="M51.9482 30.2147C52.2148 29.8425 52.5352 29.5525 52.8642 29.2548C52.9523 29.175 53.0411 29.0947 53.1296 29.0121C53.201 28.9459 53.2642 28.8961 53.3192 28.8626C53.4129 28.8065 53.4306 28.8245 53.3722 28.9167C53.288 29.05 53.1759 29.1889 53.0492 29.3055C52.6971 29.632 52.3385 29.9553 51.9733 30.2755C51.9725 30.2762 51.9715 30.2769 51.9706 30.2775C51.9697 30.278 51.9688 30.2785 51.9679 30.2789C51.9668 30.2794 51.9656 30.2798 51.9645 30.2801C51.9612 30.281 51.9578 30.281 51.9545 30.2803C51.953 30.28 51.9515 30.2795 51.9501 30.2789C51.9484 30.2781 51.9469 30.2772 51.9455 30.2761C51.9428 30.274 51.9407 30.2713 51.9393 30.2682C51.9319 30.2511 51.9348 30.2332 51.9482 30.2147Z" fill="#333333"/>
<path d="M10.7151 30.6882L10.9449 30.1544C10.9603 30.1186 10.9663 30.0795 10.9623 30.0407C10.9583 30.002 10.9445 29.9649 10.9221 29.933L10.7084 29.6296C10.6857 29.5972 10.6549 29.5714 10.6191 29.5545C10.5833 29.5376 10.5438 29.5304 10.5044 29.5334C10.4649 29.5365 10.427 29.5497 10.3942 29.5718C10.3614 29.594 10.335 29.6242 10.3174 29.6597L10.0268 30.2481C10.005 30.2925 9.99807 30.3427 10.0072 30.3913C10.0164 30.4399 10.0411 30.4842 10.0776 30.5175L10.352 30.7668C10.3789 30.7913 10.4112 30.809 10.4463 30.8184C10.4814 30.8279 10.5183 30.8288 10.5538 30.8211C10.5893 30.8134 10.6225 30.7973 10.6506 30.7742C10.6786 30.7511 10.7008 30.7216 10.7151 30.6882Z" fill="#333333"/>
<path d="M37.9749 30.2264L37.7357 30.6826C37.7197 30.7129 37.6976 30.7394 37.6707 30.7605C37.6438 30.7817 37.6128 30.7969 37.5796 30.8052C37.5465 30.8135 37.5119 30.8147 37.4783 30.8088C37.4446 30.8029 37.4126 30.7899 37.3843 30.7708L37.0814 30.5666C37.0325 30.5336 36.9973 30.4839 36.9823 30.4269C36.9673 30.3698 36.9736 30.3093 37 30.2565L37.2872 29.6809C37.3055 29.6442 37.3328 29.6127 37.3665 29.5893C37.4002 29.566 37.4393 29.5516 37.4801 29.5474C37.5209 29.5432 37.5621 29.5494 37.5999 29.5655C37.6376 29.5815 37.6707 29.6068 37.6961 29.639L37.951 29.9631C37.9799 30 37.9976 30.0445 38.0018 30.0912C38.0061 30.1379 37.9968 30.1848 37.9749 30.2264Z" fill="#333333"/>
<path fill-rule="evenodd" clip-rule="evenodd" d="M9.65817 35.8654C9.60611 35.8569 9.57134 35.8425 9.55387 35.8225C9.53007 35.7953 9.53007 35.7682 9.55387 35.741C9.76551 35.4974 9.97623 35.254 10.1867 35.0108C10.7987 34.3038 11.4082 33.5996 12.0304 32.9031C12.7136 32.139 13.4081 31.3073 13.8052 30.3519C13.8598 30.2199 13.8937 30.1044 13.9067 30.0055C13.9197 29.9055 13.898 29.8971 13.8414 29.9804C13.8228 30.0078 13.8042 30.0353 13.7855 30.0628L13.7816 30.0686L13.7815 30.0686C13.5373 30.4287 13.2869 30.7978 13.0198 31.1344C12.5497 31.7265 12.0091 32.3385 11.5238 32.888L11.5237 32.8881L11.5234 32.8884C11.3789 33.052 11.2392 33.2101 11.1078 33.3605C10.9327 33.561 10.7587 33.7629 10.5847 33.9649L10.5847 33.9649C10.0689 34.5637 9.55247 35.1632 9.00112 35.7288C8.9115 35.8202 8.88231 35.8039 8.91355 35.6797C8.94701 35.5466 8.97732 35.3857 9.00446 35.1972C9.08776 34.6208 9.17105 34.0443 9.25434 33.4676C9.28409 33.2619 9.31886 33.0874 9.35865 32.9438C9.37092 32.9003 9.36423 32.8598 9.33857 32.8222L9.32909 32.8083C9.32602 32.8037 9.32179 32.8 9.31684 32.7976C9.31189 32.7952 9.30639 32.7941 9.3009 32.7945C9.29541 32.7949 9.29012 32.7968 9.28557 32.7999C9.28101 32.803 9.27736 32.8072 9.27498 32.8122C9.16901 33.0353 9.06638 33.2573 8.96709 33.4782C8.86056 33.7163 8.81259 33.9433 8.7663 34.1932C8.63169 34.9206 8.50935 35.6501 8.39928 36.3819C8.3833 36.4868 8.3714 36.5922 8.36359 36.6982C8.35894 36.7629 8.34691 36.8366 8.3344 36.9131C8.30941 37.0661 8.28253 37.2307 8.30893 37.3586C8.33235 37.472 8.34797 37.5675 8.35578 37.6453C8.37177 37.8055 8.38367 37.9007 8.39148 37.9308C8.46287 38.1969 8.60845 38.5505 8.90964 38.6046C9.47132 38.7067 9.88072 38.3441 10.0982 37.8639C10.2667 37.4921 10.4024 37.107 10.5054 36.7088C10.5088 36.6957 10.5149 36.6835 10.5234 36.6731C10.5319 36.6626 10.5425 36.6541 10.5546 36.6481C10.5666 36.6421 10.5799 36.6388 10.5933 36.6384C10.6068 36.638 10.6202 36.6405 10.6326 36.6457C10.6521 36.654 10.676 36.6654 10.7024 36.678L10.7026 36.6781C10.7917 36.7205 10.9089 36.7764 10.979 36.7712C11.09 36.7623 11.2908 36.6006 11.3677 36.5174C11.5173 36.355 11.6573 36.2697 11.8045 36.1799C11.8676 36.1414 11.932 36.1021 11.9991 36.0556C12.1196 35.9723 12.2189 35.9091 12.297 35.866C12.9384 35.5118 13.3807 35.0817 13.5798 34.365C13.6543 34.0973 13.6544 33.7947 13.6544 33.4972C13.6545 33.4358 13.6545 33.3747 13.6551 33.3142C13.6551 33.3125 13.6549 33.3108 13.6545 33.3092C13.6542 33.3078 13.6537 33.3064 13.6531 33.3051C13.6517 33.3023 13.6498 33.2998 13.6473 33.2979C13.6449 33.2959 13.6421 33.2946 13.6391 33.2939C13.6361 33.2933 13.633 33.2933 13.63 33.2941C13.6148 33.2974 13.602 33.3079 13.5916 33.3253C13.5783 33.3475 13.562 33.3742 13.5436 33.4043C13.3982 33.6426 13.1194 34.0996 13.1264 34.2897C13.1277 34.3268 13.13 34.3653 13.1324 34.4044C13.1463 34.6323 13.1612 34.8782 12.9775 34.9535C12.9603 34.9602 12.9429 34.9613 12.925 34.9568L12.8224 34.9323C12.8023 34.9271 12.7863 34.933 12.7744 34.9501L12.5826 35.2229C12.5683 35.243 12.5483 35.2583 12.5251 35.2667C12.502 35.2751 12.4769 35.2761 12.4531 35.2697C12.2944 35.2272 12.2221 35.3219 12.1447 35.4231C12.1022 35.4787 12.0582 35.5363 11.9975 35.5743C11.9484 35.6051 11.8788 35.6072 11.8136 35.6092C11.7431 35.6113 11.6778 35.6133 11.6494 35.6512C11.6052 35.71 11.4927 35.8351 11.312 36.0266C11.1697 36.1772 11.0643 36.1984 10.8563 36.1376C10.4617 36.0234 10.0624 35.9327 9.65817 35.8654ZM9.60358 36.3356C9.70542 36.3426 9.80815 36.3496 9.9192 36.3942C10.194 36.5039 10.2626 36.6983 10.125 36.9776C9.97145 37.29 9.71636 37.4393 9.35976 37.4255C9.03291 37.4132 8.90128 37.1918 8.84383 36.9029C8.78415 36.6045 8.91634 36.3523 9.22701 36.3016C9.26643 36.2953 9.33559 36.3007 9.4345 36.3178C9.49141 36.3279 9.54733 36.3317 9.60352 36.3356H9.60358Z" fill="#333333"/>
<path d="M10.521 31.5762C10.5155 31.571 10.5087 31.5673 10.5014 31.5654C10.4941 31.5634 10.4864 31.5631 10.4789 31.5647C10.4715 31.5663 10.4645 31.5696 10.4585 31.5744C10.4526 31.5792 10.4478 31.5854 10.4446 31.5923C10.3788 31.7413 10.149 32.2444 9.93427 32.091C9.81863 32.0081 9.70596 31.9211 9.59626 31.83C9.51557 31.763 9.49419 31.6901 9.53212 31.6113C9.65818 31.3488 9.7965 31.0967 9.9471 30.855C9.96829 30.8211 9.99711 30.8128 10.0336 30.8299C10.2053 30.9117 10.3453 31.0299 10.4536 31.1846C10.4607 31.1949 10.4705 31.2031 10.4818 31.2085C10.4932 31.2138 10.5058 31.216 10.5182 31.2149C10.5307 31.2139 10.5427 31.2095 10.553 31.2023C10.5633 31.1951 10.5715 31.1854 10.5768 31.174C10.6601 30.997 10.7661 30.8349 10.8947 30.6876C10.9082 30.6724 10.9261 30.6619 10.9458 30.6575C10.9655 30.6531 10.9861 30.655 11.0046 30.6631C11.3125 30.7964 11.5295 31.1043 11.3605 31.4618C11.2828 31.6262 11.1703 31.7825 11.023 31.9309C11.0086 31.9454 10.9891 31.9537 10.9687 31.9543C10.9482 31.9548 10.9283 31.9474 10.9132 31.9337L10.521 31.5762Z" fill="#333333"/>
<path d="M12.5384 31.367C12.6405 31.2398 12.7671 31.0407 12.8167 30.8862C12.8599 30.7523 12.8388 30.7414 12.7537 30.8533C12.5919 31.0656 12.4081 31.2833 12.2021 31.5065C11.9395 31.7905 11.7692 31.9878 11.6911 32.0982C11.6272 32.189 11.5837 32.2693 11.5606 32.3392C11.5368 32.411 11.5526 32.421 11.608 32.3693C11.9412 32.0581 12.2513 31.724 12.5384 31.367Z" fill="#333333"/>
<path d="M44.0033 31.6186L43.6892 32.1161C43.6863 32.1207 43.6826 32.1249 43.6784 32.1283C43.6763 32.1299 43.6741 32.1314 43.6719 32.1327C43.6648 32.1367 43.6568 32.1389 43.6487 32.139C43.6406 32.1392 43.6325 32.1373 43.6253 32.1336C43.618 32.1299 43.6119 32.1245 43.6072 32.1178C43.5121 31.9828 43.3988 31.8697 43.2676 31.7786C43.1869 31.7225 43.119 31.7394 43.064 31.8294C42.9227 32.0614 42.7925 32.3 42.6735 32.545C42.6516 32.59 42.6579 32.6307 42.6925 32.6672C42.7881 32.7691 42.9 32.8665 43.0283 32.9594C43.0401 32.968 43.0513 32.9765 43.0621 32.9846C43.1411 33.0445 43.1933 33.084 43.2787 32.9946C43.4066 32.8603 43.5031 32.7049 43.5682 32.5283C43.5713 32.5199 43.5763 32.5123 43.583 32.5063C43.5897 32.5003 43.5977 32.4961 43.6064 32.4939C43.6152 32.4917 43.6243 32.4916 43.6331 32.4937C43.6419 32.4958 43.6501 32.5 43.6569 32.506L44.0468 32.8434C44.0636 32.858 44.0854 32.8654 44.1077 32.8643C44.1299 32.8632 44.1509 32.8535 44.1661 32.8373C44.3134 32.6819 44.4296 32.5143 44.5147 32.3347C44.6692 32.0107 44.4043 31.7296 44.141 31.5834C44.0841 31.5518 44.0382 31.5635 44.0033 31.6186Z" fill="#333333"/>
<path d="M55.9061 32.5361C55.9285 32.4856 55.95 32.4355 55.9713 32.3856C56.0571 32.1848 56.1405 31.9897 56.2737 31.806C56.4433 31.5728 56.8298 32.0553 56.8817 32.1797C56.9804 32.4195 56.7021 32.8194 56.5515 32.9907C56.4957 33.0543 56.4323 33.06 56.3613 33.008C56.2311 32.9131 56.0969 32.818 55.9586 32.7224C55.9294 32.7024 55.9082 32.6728 55.8986 32.6387C55.889 32.6047 55.8917 32.5684 55.9061 32.5361Z" fill="#333333"/>
<path d="M62.8302 32.4374C62.6869 32.6722 62.5865 32.8836 62.5106 33.1139C62.4827 33.1987 62.5184 33.235 62.5803 33.2841C62.7462 33.4161 62.9035 33.5228 63.0522 33.6042C63.0704 33.6143 63.0873 33.6126 63.103 33.5992C63.2692 33.4542 63.6289 32.9081 63.4822 32.7017C63.3712 32.5456 63.0327 32.1049 62.8302 32.4374Z" fill="#333333"/>
<path d="M5.03423 37.4355C5.14449 37.4267 5.18257 37.2976 5.21127 37.2003C5.21698 37.1809 5.22231 37.1628 5.22777 37.1472C5.23309 37.1321 5.24236 37.1188 5.25462 37.1085C5.26689 37.0983 5.28168 37.0916 5.29744 37.0891C5.31321 37.0866 5.32936 37.0884 5.34419 37.0943C5.35902 37.1002 5.37199 37.11 5.38172 37.1226C5.4903 37.2639 5.53808 37.4119 5.52507 37.5666C5.49216 37.957 5.24562 38.5561 4.7916 38.6135C4.44857 38.657 4.21877 38.3363 4.19311 38.0262C4.1814 37.8873 4.25112 37.604 4.30578 37.4623C4.48427 37.0001 4.73024 36.5686 5.04371 36.1677C5.05217 36.1569 5.05819 36.1443 5.06136 36.1309C5.06452 36.1175 5.06476 36.1036 5.06206 36.0901C5.05936 36.0767 5.05378 36.064 5.0457 36.0529C5.03762 36.0419 5.02724 36.0327 5.01526 36.026C4.75813 35.8844 4.57072 35.6618 4.54897 35.3534C4.50993 34.8034 4.70514 34.1726 4.90538 33.6645C4.93131 33.5988 4.95748 33.5284 4.98453 33.4557L4.98471 33.4552L4.98481 33.4549L4.98484 33.4548C5.09333 33.163 5.21611 32.8328 5.39455 32.6142C5.39927 32.6084 5.40516 32.6037 5.41181 32.6004C5.41845 32.5972 5.42569 32.5954 5.43303 32.5952C5.48063 32.5934 5.49643 32.6138 5.48044 32.6566C5.29935 33.1392 5.1785 33.6373 5.11789 34.1508C5.06267 34.6188 5.26849 34.8782 5.74706 34.8759C5.75742 34.8759 5.76768 34.878 5.77716 34.8822C5.78664 34.8864 5.79514 34.8926 5.80209 34.9003C5.80904 34.9081 5.81428 34.9172 5.81749 34.9271C5.82069 34.937 5.82178 34.9475 5.82068 34.9579C5.7761 35.3553 5.52944 35.7196 5.30049 36.0577L5.29136 36.0712C5.02698 36.4622 4.74921 36.8939 4.96562 37.3943C4.9713 37.4075 4.98097 37.4185 4.99328 37.4259C5.00559 37.4333 5.01991 37.4367 5.03423 37.4355Z" fill="#333333"/>
<path d="M24.2819 35.649C24.1549 35.5939 24.0352 35.5421 24.0022 35.4242C23.9825 35.3543 23.992 35.287 24.0307 35.2223C24.2824 34.8036 24.6318 34.4773 25.0787 34.2434C25.2288 34.1648 25.3699 34.1664 25.5177 34.2306C25.5332 34.2374 25.5506 34.2383 25.5667 34.233C25.5829 34.2278 25.5966 34.2168 25.6053 34.2021C25.7336 33.9846 26.0459 33.4196 25.984 33.1775C25.9792 33.1582 25.9669 33.1478 25.9472 33.1463C25.6744 33.124 25.0715 33.5931 24.8651 33.7721C24.786 33.8408 24.7107 33.9245 24.6351 34.0086C24.5971 34.0508 24.559 34.0931 24.5204 34.1335C24.2231 34.4448 23.9889 34.8001 23.7814 35.1755C23.6202 35.4677 23.3273 36.1778 23.551 36.4834C23.6577 36.6292 23.802 36.7253 23.9838 36.7718C24.1389 36.8114 24.3821 36.914 24.3112 37.1031C24.1205 37.6096 23.7723 37.9764 23.2665 38.2036L23.2308 38.2197C23.0791 38.2882 22.9639 38.3402 22.7785 38.3614C22.7354 38.3662 22.6932 38.3742 22.6513 38.3822C22.5708 38.3975 22.4915 38.4126 22.4093 38.4038C22.3118 38.3934 22.2142 38.3813 22.1164 38.3676C21.4081 38.2677 21.1197 37.6715 21.306 37.0061C21.4691 36.422 21.7096 35.8643 21.9517 35.3027C22.0208 35.1424 22.0901 34.9818 22.1577 34.8202C22.1752 34.7785 22.1692 34.7408 22.1399 34.7069L22.1214 34.6857C22.1168 34.6803 22.111 34.676 22.1044 34.6733C22.0978 34.6706 22.0907 34.6695 22.0836 34.6701C22.0765 34.6707 22.0697 34.673 22.0636 34.6768C22.0576 34.6806 22.0526 34.6857 22.0489 34.6919C21.9894 34.7934 21.8721 35.0323 21.697 35.4086C21.3962 36.0556 21.1796 36.5812 21.0472 36.9854C20.9308 37.3416 20.8722 37.582 20.8715 37.7066C20.8713 37.76 20.8704 37.8137 20.8696 37.8677C20.8646 38.2006 20.8595 38.5413 20.9886 38.8461C21.1465 39.2182 21.4443 39.4351 21.8375 39.5026C21.9342 39.519 22.0307 39.5385 22.127 39.5612C22.1452 39.5656 22.1642 39.5644 22.1817 39.5578C22.2722 39.5259 22.3661 39.5163 22.4567 39.507C22.5387 39.4986 22.618 39.4905 22.6898 39.4664C23.8734 39.0681 24.3932 37.9135 24.6191 36.7935C24.6615 36.5833 24.7028 36.0366 24.584 35.8548C24.5159 35.7503 24.396 35.6984 24.2819 35.649Z" fill="#333333"/>
<path d="M14.0969 37.2604C14.0907 37.2662 14.0826 37.2697 14.0741 37.2703C14.0655 37.271 14.0571 37.2686 14.0501 37.2637C14.0285 37.2485 14.0216 37.2243 14.0294 37.1912C14.0755 36.9982 14.1066 36.8028 14.1226 36.605C14.1251 36.5725 14.1336 36.54 14.1424 36.5068C14.1531 36.466 14.1641 36.4242 14.1644 36.3802C14.1663 35.9641 14.1661 35.5482 14.1638 35.1325C14.1635 35.0674 14.1715 34.9808 14.1878 34.8726C14.1956 34.8211 14.199 34.7688 14.2022 34.7172C14.2065 34.651 14.2106 34.5859 14.2241 34.5251C14.3144 34.1213 14.4507 33.7526 14.6329 33.419C14.7125 33.274 14.7607 33.2837 14.7774 33.448C14.78 33.474 14.7672 33.519 14.7531 33.5689C14.7371 33.6253 14.7193 33.6879 14.7199 33.7364C14.7203 33.7696 14.721 33.8024 14.7217 33.8351C14.725 33.9994 14.7283 34.159 14.692 34.3232C14.6831 34.363 14.6787 34.3974 14.6787 34.4264C14.6788 34.5238 14.6803 34.6218 14.6819 34.7202C14.6871 35.0547 14.6924 35.3926 14.6424 35.7215C14.6279 35.8186 14.6153 35.916 14.6045 36.0138C14.5638 36.3936 14.3825 36.991 14.0969 37.2604Z" fill="#333333"/>
<path d="M53.3036 34.8598L53.5456 34.3689C53.5658 34.328 53.5733 34.282 53.5673 34.2368C53.5612 34.1917 53.5418 34.1493 53.5116 34.1151L53.2322 33.7994C53.2072 33.7711 53.1755 33.7494 53.1401 33.7362C53.1047 33.723 53.0666 33.7188 53.0291 33.7239C52.9916 33.7289 52.956 33.7432 52.9254 33.7653C52.8947 33.7874 52.87 33.8168 52.8535 33.8507L52.5651 34.4414C52.5407 34.4915 52.5353 34.5488 52.55 34.6026C52.5647 34.6563 52.5984 34.7029 52.6449 34.7337L52.9706 34.9496C52.9978 34.9676 53.0285 34.9796 53.0607 34.9848C53.0929 34.9901 53.1259 34.9884 53.1574 34.9799C53.1889 34.9714 53.2182 34.9563 53.2434 34.9356C53.2686 34.9148 53.2891 34.889 53.3036 34.8598Z" fill="#333333"/>
<path d="M55.4459 37.4411C55.5195 37.3299 55.588 37.2104 55.6512 37.0825C55.7285 36.927 55.8968 36.7376 56.1559 36.5141C56.4259 36.2817 56.7156 36.0807 57.0249 35.9111C57.0673 35.8877 57.0937 35.8996 57.1042 35.9468C57.1049 35.9502 57.101 35.9653 57.0924 35.992C57.0088 36.2557 56.8288 36.4685 56.5525 36.6307L56.5314 36.643C56.2576 36.8031 55.8881 37.0191 55.8403 37.2007C55.8359 37.2172 55.8354 37.2344 55.8387 37.2511C55.842 37.2678 55.849 37.2835 55.8592 37.2971C55.8694 37.3107 55.8825 37.3218 55.8976 37.3295C55.9126 37.3373 55.9293 37.3415 55.9462 37.3418L56.2714 37.3491C56.3002 37.3498 56.3278 37.3611 56.3488 37.3809C56.3698 37.4006 56.3827 37.4274 56.3852 37.4562C56.3937 37.5522 56.3535 37.6526 56.3188 37.7392C56.3102 37.7607 56.3019 37.7813 56.2948 37.8009C56.1515 38.1997 55.8631 38.7323 55.3617 38.7139C54.8318 38.695 54.7889 38.0022 54.7894 37.6308C54.7894 37.5464 54.799 37.4554 54.8089 37.3615C54.8201 37.2553 54.8316 37.1456 54.8301 37.0378C54.829 36.9683 54.8381 36.8761 54.8575 36.7612C54.8708 36.6831 54.8787 36.5892 54.8809 36.4795C54.885 36.2705 54.9532 35.7942 55.0856 35.0505C55.1493 34.6939 55.274 34.3788 55.4046 34.0488L55.4247 33.998C55.4507 33.9322 55.4801 33.8825 55.5128 33.8491C55.5166 33.8453 55.5214 33.8427 55.5266 33.8414C55.5318 33.8402 55.5373 33.8405 55.5423 33.8421C55.5474 33.8438 55.5519 33.8468 55.5554 33.8509C55.5564 33.8522 55.5574 33.8535 55.5582 33.8549C55.5601 33.8581 55.5614 33.8616 55.5619 33.8653C55.5738 33.9524 55.5585 34.0358 55.5438 34.1166C55.5336 34.1724 55.5236 34.227 55.5229 34.2808C55.5221 34.3712 55.5138 34.4606 55.4978 34.5491C55.4762 34.6688 55.4634 34.7839 55.4508 34.8977L55.4508 34.8979C55.4394 35.0014 55.428 35.1039 55.4102 35.2078C55.4033 35.2484 55.3989 35.2979 55.3942 35.3508C55.3871 35.431 55.3793 35.5189 55.3611 35.5949C55.3446 35.6648 55.3413 35.7319 55.338 35.7995C55.3354 35.8526 55.3328 35.9061 55.3238 35.9613C55.313 36.029 55.3065 36.1149 55.3042 36.219C55.3031 36.2812 55.2917 36.3393 55.2805 36.3964L55.2805 36.3964C55.2692 36.4536 55.2582 36.5096 55.2579 36.5676L55.2568 37.0897C55.2563 37.1994 55.2873 37.2902 55.3208 37.3882L55.3208 37.3883C55.3251 37.401 55.3295 37.4137 55.3338 37.4266C55.3376 37.4377 55.3444 37.4476 55.3536 37.455C55.3627 37.4625 55.3737 37.4672 55.3853 37.4687C55.397 37.4702 55.4089 37.4684 55.4196 37.4636C55.4303 37.4587 55.4394 37.4509 55.4459 37.4411Z" fill="#333333"/>
<path fill-rule="evenodd" clip-rule="evenodd" d="M44.2632 37.4138C44.2067 37.4584 44.1595 37.45 44.1216 37.3887C44.11 37.3697 44.1056 37.3377 44.1082 37.2927C44.1093 37.2701 44.1152 37.2388 44.126 37.199C44.1892 36.9659 44.176 36.7368 44.0864 36.5119C43.981 36.2453 43.6675 36.2374 43.479 36.4148C43.17 36.7065 42.9608 37.1622 42.8392 37.5577C42.832 37.5814 42.8161 37.6016 42.7946 37.6142C42.7731 37.6268 42.7477 37.6309 42.7232 37.6257C42.166 37.5058 42.1353 36.8582 42.2012 36.4115C42.2103 36.3497 42.2137 36.2871 42.217 36.2243C42.2218 36.1344 42.2266 36.0439 42.2486 35.9547C42.265 35.8864 42.268 35.8237 42.2711 35.7605V35.7604C42.2733 35.7142 42.2756 35.6676 42.2831 35.6183C42.3162 35.4064 42.3419 35.1932 42.3676 34.9801L42.3676 34.9799L42.3677 34.9794C42.3862 34.8259 42.4047 34.6724 42.4259 34.5195C42.4326 34.4707 42.436 34.4209 42.4395 34.3697V34.3696C42.4479 34.2461 42.4569 34.1148 42.5141 33.9712C42.519 33.9589 42.5211 33.9457 42.5202 33.9324C42.5192 33.9192 42.5152 33.9064 42.5086 33.8949C42.5019 33.8834 42.4927 33.8736 42.4817 33.8663C42.4706 33.8589 42.458 33.8542 42.4449 33.8524C42.4349 33.8509 42.4207 33.8697 42.4025 33.9088C42.2917 34.143 42.1967 34.383 42.1175 34.6288C41.9801 35.0553 41.9185 35.5531 41.8594 36.0317C41.8443 36.1533 41.8294 36.2737 41.8135 36.3914C41.8064 36.4431 41.804 36.4999 41.8016 36.5586C41.7982 36.6386 41.7947 36.7224 41.7789 36.8025C41.7593 36.9005 41.7602 36.9833 41.7612 37.0736C41.7613 37.0853 41.7615 37.097 41.7615 37.109C41.7616 37.1137 41.7616 37.1185 41.7616 37.1233L41.7616 37.1278L41.7616 37.1355C41.7618 37.2184 41.7495 37.2937 41.7373 37.3681C41.7167 37.4932 41.6965 37.6161 41.7371 37.7696C41.7505 37.8198 41.7572 37.8719 41.7572 37.9258C41.7572 38.0736 41.8743 38.275 41.9279 38.3631C42.0903 38.6297 42.3363 38.7472 42.6658 38.7156C43.0386 38.6801 43.2873 38.4614 43.5545 38.2263L43.5588 38.2225C43.6836 38.1125 43.8255 38.0513 43.9663 37.9905C44.1016 37.9321 44.2361 37.8741 44.3536 37.7735C44.4822 37.6633 44.5855 37.5288 44.6887 37.3944C44.8117 37.2344 44.9344 37.0746 45.0993 36.9564C45.2071 36.8788 45.3279 36.906 45.4434 36.9319C45.5438 36.9545 45.6403 36.9762 45.7207 36.9274C45.9499 36.7885 46.1613 36.4935 46.0704 36.2151C46.0225 36.0695 45.9175 35.9408 45.8177 35.8183C45.7791 35.771 45.7413 35.7246 45.7079 35.6786C45.7033 35.6725 45.6974 35.6676 45.6905 35.6644C45.6837 35.6613 45.6761 35.6599 45.6686 35.6604C45.661 35.6609 45.6537 35.6632 45.6473 35.6673C45.6409 35.6714 45.6357 35.677 45.632 35.6836C45.5688 35.8026 45.4966 35.9126 45.4156 36.0138C45.3775 36.0608 45.3272 36.1018 45.2763 36.1433C45.216 36.1923 45.1548 36.2422 45.1116 36.3038C45.0257 36.4262 44.9063 36.6119 44.7535 36.861C44.6046 37.1031 44.4729 37.2481 44.2632 37.4138ZM43.7786 36.948C43.855 36.9855 43.9039 37.0449 43.9146 37.1131C43.9199 37.1469 43.9157 37.1819 43.9021 37.216C43.8885 37.2501 43.866 37.2827 43.8356 37.3119C43.8053 37.3412 43.7678 37.3664 43.7253 37.3864C43.6828 37.4063 43.6361 37.4204 43.5879 37.4279C43.4906 37.4432 43.393 37.4307 43.3166 37.3932C43.2402 37.3557 43.1913 37.2963 43.1806 37.2281C43.1753 37.1943 43.1796 37.1593 43.1931 37.1252C43.2067 37.0911 43.2293 37.0585 43.2596 37.0293C43.2899 37 43.3274 36.9747 43.3699 36.9548C43.4124 36.9349 43.4591 36.9208 43.5073 36.9132C43.6046 36.898 43.7022 36.9105 43.7786 36.948Z" fill="#333333"/>
<path d="M62.5424 37.3312C62.5515 37.3389 62.5622 37.3444 62.5736 37.3473C62.5851 37.3503 62.5971 37.3507 62.6088 37.3485C62.6204 37.3462 62.6314 37.3414 62.641 37.3344C62.6505 37.3273 62.6584 37.3183 62.664 37.3078C62.7928 37.0641 63.4148 36.2017 63.7076 36.2151C63.7195 36.2157 63.731 36.2195 63.7409 36.2262C63.7508 36.2328 63.7587 36.2419 63.7638 36.2527C63.7689 36.2635 63.771 36.2754 63.7698 36.2873C63.7687 36.2991 63.7643 36.3104 63.7572 36.32C63.6587 36.452 63.5787 36.5922 63.5174 36.7406C63.4713 36.8521 63.4215 36.9335 63.3679 36.9849C63.3078 37.0424 63.2472 37.0957 63.1873 37.1483C63.0186 37.2966 62.8553 37.4401 62.7248 37.662C62.5934 37.8855 62.4884 38.1774 62.3852 38.4642L62.3851 38.4646L62.385 38.4648L62.385 38.4648C62.3407 38.588 62.2968 38.7101 62.2512 38.8255C62.2293 38.8802 62.1925 38.9138 62.1408 38.9264C62.1363 38.9276 62.1317 38.928 62.1271 38.9278C62.1236 38.9276 62.1201 38.9271 62.1167 38.9261C62.1089 38.9238 62.1017 38.9196 62.0961 38.9137C62.0904 38.9078 62.0864 38.9005 62.0844 38.8925C62.0825 38.8846 62.0827 38.8763 62.085 38.8684C62.0883 38.8577 62.0915 38.8471 62.0947 38.8367L62.0948 38.8365C62.1111 38.784 62.1264 38.7348 62.1297 38.6743C62.1336 38.5971 62.1483 38.5161 62.1632 38.4339L62.1632 38.4338C62.1966 38.2496 62.231 38.0597 62.1481 37.8935C62.0555 37.7077 61.8078 37.6631 61.6416 37.7607C61.5843 37.7942 61.5092 37.8691 61.4163 37.9855C61.3849 38.0247 61.3513 38.0697 61.3155 38.1177C61.1298 38.3667 60.8846 38.6954 60.5712 38.7123C59.9083 38.7478 59.836 38.3112 59.749 37.785L59.7477 37.7774C59.7451 37.7611 59.7424 37.7448 59.7396 37.7284C59.7233 37.6295 59.7214 37.543 59.734 37.469C59.7565 37.3375 59.7648 37.217 59.7729 37.0987V37.0986L59.7729 37.0984V37.0983C59.7807 36.9849 59.7883 36.8735 59.8082 36.7562C59.8212 36.6772 59.8251 36.5947 59.8289 36.5151V36.5148C59.8319 36.4511 59.8348 36.3893 59.8422 36.3328C59.8973 35.919 59.9586 35.5062 60.0263 35.0946C60.0917 34.6984 60.2317 34.3467 60.3778 33.9794L60.3788 33.977C60.3918 33.9444 60.4048 33.9116 60.4179 33.8786C60.4187 33.8765 60.4197 33.8745 60.4209 33.8726L60.4215 33.8718L60.4219 33.8712L60.4221 33.8708L60.4226 33.8702L60.4231 33.8696C60.4255 33.8665 60.4286 33.8639 60.432 33.8618C60.4385 33.858 60.4461 33.8564 60.4536 33.8574L60.4731 33.8597C60.4751 33.8599 60.477 33.8602 60.479 33.8606C60.48 33.8608 60.481 33.8611 60.482 33.8614C60.4832 33.8617 60.4843 33.862 60.4855 33.8624C60.4893 33.8637 60.4931 33.8654 60.4966 33.8674C60.4975 33.868 60.4984 33.8685 60.4992 33.8691L60.5006 33.87C60.5025 33.8713 60.5043 33.8727 60.506 33.8742C60.5093 33.8772 60.5123 33.8805 60.5149 33.8841C60.5197 33.8909 60.5231 33.8987 60.5247 33.9069C60.525 33.9083 60.5252 33.9097 60.5254 33.9112C60.5257 33.9129 60.5258 33.9147 60.5258 33.9165C60.526 33.9216 60.5255 33.9266 60.5244 33.9316C60.4891 34.0822 60.4731 34.2385 60.4582 34.3852L60.4582 34.3853L60.4582 34.3856C60.4488 34.4772 60.4399 34.5652 60.4268 34.6456C60.4118 34.739 60.4015 34.8327 60.3912 34.9265C60.3785 35.0422 60.3658 35.1581 60.3442 35.2736C60.3241 35.3819 60.3153 35.4949 60.3066 35.6079V35.6081C60.2982 35.7168 60.2898 35.8254 60.2712 35.9301C60.2596 35.9958 60.2583 36.064 60.2569 36.1316V36.1317C60.2552 36.2146 60.2535 36.2966 60.2332 36.3719C60.1763 36.5827 60.1747 37.0211 60.2433 37.2197C60.3582 37.5532 60.6161 37.6932 61.0169 37.6397C61.2476 37.6091 61.4014 37.4598 61.5581 37.3077C61.673 37.1961 61.7895 37.0831 61.9389 37.0144C62.0923 36.9436 62.2975 37.0724 62.4124 37.1706C62.4379 37.1924 62.4574 37.2216 62.4769 37.2506C62.4968 37.2801 62.5165 37.3096 62.5424 37.3312Z" fill="#333333"/>
<path d="M30.749 34.1715C30.6782 34.312 30.5783 34.3578 30.4305 34.2836C30.4155 34.2757 30.3981 34.2741 30.382 34.2791C30.2202 34.3289 30.1066 34.4063 30.0412 34.5112C29.8586 34.8027 29.6757 35.0938 29.4924 35.3846C29.4503 35.4504 29.3979 35.4824 29.3351 35.4806C28.881 35.4661 28.5006 35.4599 28.0879 35.6378C27.0137 36.0991 26.3831 37.0442 25.7595 37.9788C25.7384 38.0104 25.7173 38.042 25.6962 38.0736C25.4076 38.5053 25.1882 38.7959 25.038 38.9454C24.6327 39.3498 24.2373 39.642 23.8185 39.9515L23.8176 39.9521L23.8169 39.9527L23.8142 39.9547C23.729 40.0177 23.6429 40.0813 23.5555 40.1468C23.547 40.1532 23.5403 40.1616 23.5362 40.1714C23.5321 40.1811 23.5307 40.1918 23.5321 40.2023C23.5335 40.2128 23.5378 40.2227 23.5443 40.231C23.5509 40.2393 23.5595 40.2457 23.5694 40.2495C23.6088 40.2644 23.6583 40.2591 23.7178 40.2339C24.2683 39.9985 24.7212 39.7079 25.1758 39.284C25.6945 38.8004 26.0783 38.2761 26.4715 37.7278C26.8167 37.2464 27.1648 36.8727 27.7482 36.6831C27.8517 36.6494 27.9629 36.6446 28.0761 36.6398H28.0762C28.1522 36.6366 28.229 36.6333 28.3049 36.6212C28.3765 36.6097 28.4422 36.6025 28.5035 36.5957C28.7449 36.5693 28.9197 36.5501 29.1309 36.3033C29.4236 35.9615 29.6651 35.6339 29.8555 35.3205C29.9559 35.1559 30.1645 34.8826 30.3842 34.9362C30.4947 34.9635 30.6313 34.9825 30.7273 34.9295C31.0034 34.7761 31.0982 34.4258 30.9269 34.1503C30.9046 34.1149 30.8829 34.0978 30.8617 34.099C30.8381 34.0998 30.8151 34.107 30.7953 34.1197C30.7755 34.1325 30.7595 34.1504 30.749 34.1715Z" fill="#333333"/>
<path d="M19.352 36.4601C19.5716 36.6522 19.8248 36.8737 19.7521 37.1784C19.7223 37.3029 19.628 37.4313 19.5412 37.5494C19.5238 37.573 19.5067 37.5963 19.4905 37.619C19.4114 37.73 19.3123 37.8335 19.2115 37.9388C19.1324 38.0214 19.0522 38.105 18.9801 38.1941C18.9441 38.2386 18.8995 38.2809 18.8548 38.3234C18.7964 38.3788 18.7378 38.4346 18.6973 38.4959C18.6416 38.581 18.6616 38.6063 18.7576 38.5717C19.2378 38.3999 19.7153 38.048 19.9646 37.5872C20.1258 37.2894 20.1905 37.0529 20.2652 36.6954C20.3996 36.0556 20.1916 35.6005 19.6567 35.2407C19.5853 35.1924 19.5308 35.2067 19.4933 35.2837C19.4304 35.4127 19.3375 35.6403 19.2144 35.9664C19.2047 35.9921 19.1952 36.0156 19.1863 36.0373C19.1336 36.1669 19.1066 36.2334 19.2289 36.3496C19.2668 36.3855 19.3087 36.4222 19.352 36.4601L19.352 36.4601Z" fill="#333333"/>
<path d="M16.6548 37.1282C16.5315 37.5231 16.3625 37.8862 16.039 38.1612C15.8126 38.3536 15.2737 38.6727 14.9664 38.6219C14.9622 38.6213 14.9583 38.6196 14.955 38.6169C14.9516 38.6143 14.9491 38.6108 14.9475 38.6068C14.9459 38.6028 14.9454 38.5984 14.946 38.5942C14.9466 38.5899 14.9482 38.5858 14.9508 38.5823C14.9802 38.5429 15.0149 38.5064 15.0551 38.473C15.1277 38.4123 15.2056 38.3499 15.2859 38.2857L15.2862 38.2855L15.2863 38.2854L15.2871 38.2847L15.2874 38.2845C15.5978 38.0361 15.9422 37.7605 16.1405 37.4534C16.2911 37.2191 15.812 36.7891 15.6285 36.6608C15.5612 36.6139 15.5143 36.5383 15.4879 36.4338C15.4835 36.4159 15.4855 36.399 15.4941 36.383C15.6346 36.1194 15.7624 35.8511 15.8773 35.5782C15.8984 35.5276 15.9211 35.4973 15.9453 35.4872C15.9817 35.4716 16.0258 35.4804 16.0775 35.5135C16.507 35.7868 16.8199 36.2514 16.7173 36.7673C16.7072 36.8166 16.7009 36.8657 16.6947 36.9144L16.6947 36.9145C16.6854 36.9875 16.6762 37.0593 16.6548 37.1282Z" fill="#333333"/>
<path d="M58.392 36.9558C58.507 37.0496 58.7652 37.3904 58.6559 37.5638C58.5633 37.7105 58.4155 37.8628 58.2649 37.9894C58.0232 38.1935 57.7666 38.4088 57.4952 38.6353C57.4639 38.6617 57.4645 38.6874 57.4968 38.7123C57.5229 38.7316 57.5669 38.7338 57.629 38.719C58.4685 38.5165 59.0714 37.9286 59.2042 37.0663C59.2107 37.0239 59.2185 36.9829 59.2262 36.9427L59.2262 36.9425C59.2493 36.8216 59.271 36.708 59.2521 36.5849C59.1845 36.1428 58.9476 35.808 58.5415 35.5804C58.4846 35.5488 58.4443 35.5631 58.4205 35.6233C58.3164 35.8848 58.195 36.1367 58.0563 36.3791C57.9296 36.6008 58.1245 36.7498 58.306 36.8887C58.3355 36.9113 58.3647 36.9336 58.392 36.9558Z" fill="#333333"/>
<path d="M39.4474 37.4322C39.1633 37.5679 38.9644 37.7079 38.8506 37.8522C38.8183 37.8934 38.7851 37.9343 38.7518 37.9752C38.6274 38.1281 38.5024 38.2818 38.425 38.4574C38.1941 38.98 38.092 39.5567 38.0173 40.1201C38.0138 40.146 38.0125 40.1707 38.0112 40.1951C38.009 40.2368 38.0069 40.2776 37.9939 40.322C37.9741 40.3892 37.9694 40.4554 37.9647 40.5215C37.9608 40.5749 37.957 40.6282 37.9453 40.6817C37.9239 40.7791 37.9217 40.8771 37.9195 40.9739C37.9178 41.0486 37.9162 41.1225 37.9057 41.1949C37.8853 41.3347 37.878 41.4756 37.884 41.6177C37.886 41.672 37.8741 41.7203 37.8623 41.7681C37.8515 41.8121 37.8408 41.8557 37.841 41.9033C37.8412 41.929 37.8415 41.9541 37.8417 41.9788C37.842 42.0109 37.8424 42.0422 37.8428 42.0727C37.8461 42.3517 37.8486 42.5607 37.8154 42.7449C37.7842 42.9192 37.7901 43.1253 37.7956 43.3195V43.3198C37.7977 43.3928 37.7997 43.4641 37.7997 43.5314C37.8 43.614 37.7897 43.6996 37.7792 43.7871L37.7792 43.7872C37.7666 43.8916 37.7537 43.9989 37.7579 44.1076C37.7581 44.1129 37.7575 44.1182 37.756 44.1233C37.755 44.1267 37.7537 44.1301 37.752 44.1332C37.7477 44.1411 37.7415 44.1476 37.7339 44.1522C37.7183 44.1615 37.702 44.163 37.6848 44.1566C37.6722 44.1518 37.6614 44.1408 37.6525 44.1237C37.6309 44.0825 37.6201 44.049 37.6201 44.0233C37.6227 43.5329 37.6252 43.0422 37.6274 42.5514C37.6277 42.5021 37.6385 42.4563 37.6494 42.4104C37.6604 42.3638 37.6715 42.3172 37.6715 42.2669C37.6715 41.9665 37.6728 41.666 37.6754 41.3656C37.6756 41.3167 37.6859 41.2618 37.6957 41.2093C37.7056 41.1565 37.715 41.1061 37.7133 41.0666C37.7018 40.7918 37.7157 40.5189 37.7551 40.2478C37.7725 40.1293 37.7848 40.015 37.7967 39.9032C37.8181 39.7033 37.8386 39.5117 37.8862 39.3197C37.9375 39.1122 37.9892 38.9049 38.0413 38.6978C38.1375 38.3143 38.3105 38.0392 38.5202 37.7057L38.5327 37.686C38.6643 37.4766 38.7941 37.3076 38.922 37.179C39.1607 36.9395 39.4292 36.7359 39.7274 36.5682C39.8414 36.5039 40.0041 36.1475 40.1052 35.926C40.1312 35.869 40.1532 35.8209 40.1692 35.789C40.2249 35.6778 40.3136 35.6352 40.4352 35.6613C40.6063 35.6977 40.7728 35.7395 40.935 35.7868C41.1291 35.8437 41.2278 35.9134 41.201 36.1315C41.1983 36.1533 41.1964 36.1746 41.1946 36.1954C41.1886 36.2613 41.1831 36.323 41.1547 36.3869C41.0002 36.73 40.7615 37.0256 40.39 37.1254C39.9327 37.2481 39.6184 37.3504 39.4474 37.4322Z" fill="#333333"/>
<path d="M31.5968 38.2683C31.941 37.9939 32.1485 37.4277 32.279 37.0044C32.3738 36.6954 32.4709 36.3776 32.5701 36.0511C32.5906 35.9835 32.5837 35.9188 32.5495 35.857L32.5317 35.8253C32.5269 35.8166 32.5198 35.8095 32.5112 35.8046C32.5027 35.7998 32.4929 35.7974 32.483 35.7978C32.4732 35.7982 32.4636 35.8014 32.4555 35.8069C32.4473 35.8125 32.4409 35.8202 32.4368 35.8292C32.281 36.1791 32.133 36.5096 31.9928 36.8209C31.8806 37.0704 31.7861 37.2518 31.7095 37.3653C31.5771 37.5612 31.4338 37.71 31.2795 37.8115C30.8485 38.0952 30.53 38.3151 30.324 38.4713C30.282 38.5033 30.2716 38.5414 30.2928 38.5857C30.3006 38.602 30.3134 38.6111 30.3313 38.613C30.6113 38.6425 31.3642 38.4535 31.5968 38.2683Z" fill="#333333"/>
<path fill-rule="evenodd" clip-rule="evenodd" d="M6.35338 37.184C6.30058 37.1215 6.28645 37.0631 6.31099 37.0088C6.45638 36.6902 6.59898 36.3719 6.7388 36.0539C6.87489 35.7433 7.31553 36.2101 7.38916 36.3362C7.46836 36.4711 7.50424 36.6474 7.49681 36.8649C7.47728 37.464 7.209 38.2052 6.68023 38.5555C6.46995 38.6944 6.07338 38.6353 6.03322 38.333C5.97615 37.9012 6.12685 37.6392 6.32452 37.2955L6.35784 37.2375C6.36272 37.2292 6.3649 37.2195 6.3641 37.2099C6.3633 37.2003 6.35956 37.1913 6.35338 37.184ZM6.39187 37.5075C6.04326 38.1768 6.93681 38.0926 6.99258 37.7222C7.01824 37.5488 6.78398 37.2972 6.60549 37.2927C6.50557 37.29 6.43843 37.4184 6.39532 37.5009L6.39187 37.5075Z" fill="#333333"/>
<path d="M51.3496 37.9861C51.3567 37.9831 51.3646 37.9827 51.372 37.9849C51.4099 37.9961 51.4358 38.0232 51.4495 38.0664C51.4953 38.2125 51.5667 38.3425 51.6637 38.4562C51.9839 38.8316 52.4669 38.7926 52.7558 38.3843C52.7739 38.3588 52.7974 38.3239 52.825 38.283L52.8251 38.2828C52.9718 38.0649 53.2319 37.6787 53.3844 37.6575C53.5365 37.6367 53.6886 37.6131 53.8407 37.5867C54.1168 37.5382 54.3349 36.9408 54.3644 36.7489C54.4005 36.5169 54.354 36.499 54.225 36.6954C54.2141 36.712 54.2028 36.7304 54.1909 36.7496C54.1449 36.8243 54.0913 36.9115 54.0225 36.9558C53.9383 37.0103 53.8508 36.9792 53.7684 36.9499L53.7684 36.9499C53.7583 36.9463 53.7482 36.9427 53.7383 36.9393C53.7305 36.9367 53.7228 36.9342 53.7152 36.9319C53.6992 36.9271 53.6821 36.9273 53.6661 36.9324C53.4602 36.9978 53.3352 37.1446 53.2094 37.2923C53.0776 37.4472 52.9449 37.6031 52.7173 37.667C52.2784 37.7908 51.8946 37.4249 51.8695 36.9904C51.8598 36.8234 51.9189 36.6533 51.9781 36.4827C51.9904 36.4471 52.0028 36.4114 52.0146 36.3758C52.0152 36.3739 52.0156 36.372 52.016 36.3701C52.0163 36.3685 52.0164 36.3668 52.0165 36.3651C52.0167 36.3616 52.0164 36.3581 52.0157 36.3546C52.0142 36.3476 52.0109 36.3411 52.0061 36.3358C52.0012 36.3305 51.9951 36.3265 51.9883 36.3243C51.9814 36.3221 51.9742 36.3218 51.9671 36.3233L51.9437 36.3284C51.8939 36.3395 51.8571 36.3676 51.8333 36.4126C51.7839 36.5064 51.7374 36.5972 51.6919 36.6863C51.4944 37.0722 51.3142 37.4244 50.9933 37.8355C50.9487 37.8923 50.8983 37.944 50.8421 37.9905C50.5235 38.2534 50.1856 38.4886 49.8287 38.6961C49.7543 38.7392 49.6851 38.7896 49.6212 38.8472C49.5799 38.8848 49.584 38.9138 49.6334 38.9343C49.6483 38.9404 49.6645 38.9418 49.6797 38.9382C49.9423 38.8772 50.2016 38.8125 50.4578 38.7441C50.9503 38.6124 51.1205 38.3899 51.333 38.0011C51.3366 37.9943 51.3425 37.989 51.3496 37.9861Z" fill="#333333"/>
<path d="M18.8083 37.1617C18.7828 37.219 18.7586 37.2752 18.735 37.3302C18.5474 37.766 18.3942 38.122 17.9058 38.3508C17.6868 38.4538 17.4624 38.5438 17.2326 38.6208C17.1657 38.6431 17.1274 38.6245 17.1177 38.565C17.1149 38.5478 17.117 38.5301 17.1238 38.514C17.1306 38.4979 17.1418 38.4841 17.1562 38.4741C17.2367 38.4183 17.3214 38.3626 17.4075 38.306C17.7257 38.0967 18.0635 37.8745 18.2857 37.5839C18.3189 37.5404 18.3522 37.4946 18.3861 37.4481C18.4971 37.2957 18.6138 37.1355 18.7514 37.0206C18.7565 37.0163 18.7626 37.0133 18.7691 37.0119C18.7756 37.0105 18.7823 37.0106 18.7887 37.0123C18.7952 37.014 18.8011 37.0172 18.8061 37.0216C18.811 37.0261 18.8148 37.0316 18.8172 37.0378C18.8313 37.075 18.8284 37.1163 18.8083 37.1617Z" fill="#333333"/>
<path d="M29.5064 38.5154C29.5638 38.1874 29.7958 37.7429 29.9844 37.4657C29.9871 37.4615 29.9885 37.4565 29.9882 37.4515C29.988 37.4465 29.9861 37.4417 29.9829 37.4379C29.9797 37.434 29.9754 37.4312 29.9705 37.43C29.9657 37.4288 29.9606 37.4292 29.9559 37.4311C29.9109 37.4497 29.8706 37.485 29.8349 37.537C29.5917 37.8946 29.1338 38.8004 29.3245 39.2249C29.3565 39.2955 29.4024 39.3392 29.4623 39.3559C29.7434 39.434 29.899 38.9125 29.7016 38.7513C29.6816 38.7349 29.6578 38.7206 29.6338 38.706C29.5621 38.6627 29.4884 38.6181 29.5064 38.5154Z" fill="#333333"/>
<path d="M27.4906 41.8118C27.3935 42.0315 27.2675 42.2344 27.1124 42.4203C27.1005 42.4346 27.0837 42.4439 27.0653 42.4466C27.0469 42.4492 27.0281 42.4451 27.0126 42.4348C26.8713 42.3415 26.7248 42.2424 26.5731 42.1375C26.4753 42.0702 26.4531 41.9813 26.5067 41.8709C26.6019 41.6738 26.7027 41.4799 26.809 41.2892C26.881 41.1592 26.9496 41.0906 27.0996 41.1843C27.2625 41.2858 27.5843 41.601 27.4906 41.8118Z" fill="#333333"/>
<path d="M54.3916 42.4694C54.3979 42.4713 54.4037 42.4748 54.4085 42.4794C54.5189 42.5858 54.6385 42.6931 54.7671 42.8013C54.9501 42.9541 55.2156 42.4499 55.2725 42.3272C55.4152 42.0198 55.2195 41.7956 54.9952 41.6199C54.8763 41.5273 54.7788 41.5433 54.703 41.6679C54.6182 41.8081 54.536 41.9527 54.4564 42.1018C54.4517 42.1106 54.4448 42.1181 54.4363 42.1235C54.4279 42.1288 54.4182 42.1319 54.4082 42.1324C54.3982 42.1329 54.3883 42.1308 54.3793 42.1263C54.3704 42.1219 54.3627 42.1151 54.3572 42.1068C54.2586 41.9562 54.1322 41.8328 53.9779 41.7365C53.9663 41.7293 53.9533 41.7245 53.9398 41.7225C53.9263 41.7205 53.9125 41.7212 53.8993 41.7247C53.8861 41.7282 53.8738 41.7344 53.8632 41.7428C53.8525 41.7513 53.8437 41.7619 53.8373 41.7739L53.424 42.5475C53.417 42.5606 53.4143 42.5757 53.4162 42.5904C53.4181 42.6052 53.4245 42.6191 53.4346 42.63C53.5417 42.7464 53.6516 42.8474 53.7642 42.9329C53.9132 43.0456 53.9996 43.0428 54.1084 42.8872C54.1939 42.7652 54.2716 42.6332 54.3415 42.4911C54.3444 42.4852 54.3487 42.48 54.354 42.476C54.3593 42.472 54.3655 42.4693 54.372 42.4681C54.3764 42.4674 54.3809 42.4673 54.3853 42.4679C54.3874 42.4683 54.3895 42.4687 54.3916 42.4694Z" fill="#333333"/>
</svg>
