<svg width="30" height="30" viewBox="0 0 30 30" fill="none" xmlns="http://www.w3.org/2000/svg">
<path d="M2.49609 10.625H14.3711" stroke="#292D32" stroke-width="2" stroke-miterlimit="10" stroke-linecap="round" stroke-linejoin="round"/>
<path d="M7.49609 20.625H9.99609" stroke="#292D32" stroke-width="2" stroke-miterlimit="10" stroke-linecap="round" stroke-linejoin="round"/>
<path d="M13.1211 20.625H18.1211" stroke="#292D32" stroke-width="2" stroke-miterlimit="10" stroke-linecap="round" stroke-linejoin="round"/>
<path d="M27.4961 15.0375V20.1375C27.4961 24.525 26.3836 25.625 21.9461 25.625H8.04609C3.60859 25.625 2.49609 24.525 2.49609 20.1375V9.8625C2.49609 5.475 3.60859 4.375 8.04609 4.375H18.1211" stroke="#292D32" stroke-width="2" stroke-linecap="round" stroke-linejoin="round"/>
<path d="M23.8445 5.16264L19.207 9.80014C19.032 9.97514 18.857 10.3251 18.8195 10.5751L18.5695 12.3501C18.482 12.9876 18.932 13.4376 19.5695 13.3501L21.3445 13.1001C21.5945 13.0626 21.9445 12.8876 22.1195 12.7126L26.757 8.07514C27.557 7.27514 27.932 6.35014 26.757 5.17514C25.5695 3.98764 24.6445 4.36264 23.8445 5.16264Z" stroke="#292D32" stroke-width="2" stroke-miterlimit="10" stroke-linecap="round" stroke-linejoin="round"/>
<path d="M23.1836 5.82471C23.5836 7.23721 24.6836 8.33721 26.0836 8.72471" stroke="#292D32" stroke-width="2" stroke-miterlimit="10" stroke-linecap="round" stroke-linejoin="round"/>
</svg>
